<?xml version="1.0" standalone="no"?>
<!DOCTYPE svg PUBLIC "-//W3C//DTD SVG 1.1//EN" "http://www.w3.org/Graphics/SVG/1.1/DTD/svg11.dtd" >
<!--
2013-9-30: Created.
-->
<svg>
<metadata>
Created by iconfont
</metadata>
<defs>

<font id="iconfont" horiz-adv-x="1024" >
  <font-face
    font-family="iconfont"
    font-weight="500"
    font-stretch="normal"
    units-per-em="1024"
    ascent="896"
    descent="-128"
  />
    <missing-glyph />
    
    <glyph glyph-name="wenzi" unicode="&#59006;" d="M837.5762636 490.89691976c0-9.58096097-7.35535519-16.63775911-15.49781485-16.63775974h-3.17555902a14.92784306 14.92784306 0 0 0-13.89646484 9.60810265c-13.89646485 32.59698038-61.33986329 136.19620937-116.2743246 146.8356902a328.11398519 328.11398519 0 0 1-95.83675136 5.31974043c-8.14245967-0.86852886-13.89646485-7.89818596-13.89646421-16.63775911l-0.81424617-472.53407921c0-2.57844553 0.81424615-5.31974043 1.60135066-7.89818596 5.75400517-10.63948086 22.03892453-36.85820092 45.84204779-39.62663749h49.99470294c8.95670584 0 15.49781487-7.87104428 15.49781486-16.61061744v-7.89818595c0-9.60810263-7.35535519-16.63775911-15.49781486-16.63775975H348.21443489c-8.95670584 0-15.49781487 7.89818596-15.4978155 16.63775975v9.60810264c0 8.73957314 6.54110903 15.76923025 15.4978155 16.63775909l40.08804325 0.84138784c1.60135065 0 3.17555901 0 4.93975901 0.86852886 8.95670584 3.41983337 40.90228941 18.51052514 40.90228879 47.49768175 0 30.69707331 0.78710449 376.48019581 0.78710448 465.31443111 0 8.76671481-5.75400517 15.79637192-13.89646421 16.63775974-22.82602901 2.57844553-67.06672679 6.18826928-94.07255135-0.84138782-35.14828423-8.73957314-94.85965585-61.58413701-109.73321558-139.7788921-1.60135065-8.06103532-7.49106288-13.38077573-15.00926742-13.21792574-8.92956417 0.16284936-15.95922128 8.57672442-15.95922128 18.34767578V691.58141039c0 10.12379174 7.49106288 18.18482642 16.90917514 18.18482643h618.90836303c8.95670584 0 15.49781487-7.89818596 15.49781485-16.63775912v-202.23155794z"  horiz-adv-x="1024" />

    
    <glyph glyph-name="shoudongjiupian" unicode="&#59002;" d="M391.68333352 633.99999961a108.29999971 108.29999971 0 1 0-216.65000039 0 108.29999971 108.29999971 0 0 0 216.65000039 0z m-50.00000009 0a58.29999961 58.29999961 0 1 1-116.6500002 0 58.29999961 58.29999961 0 0 1 116.6500002 0zM891.68333362 633.99999961a108.29999971 108.29999971 0 1 0-216.65000039 0 108.29999971 108.29999971 0 0 0 216.65000039 0z m-50.0000001 0a58.29999961 58.29999961 0 1 1-116.65000019 0 58.29999961 58.29999961 0 0 1 116.65000019 0zM391.68333352 134.00000038999997a108.29999971 108.29999971 0 1 0-216.65000039 0 108.29999971 108.29999971 0 0 0 216.65000039 0z m-50.00000009 0a58.29999961 58.29999961 0 1 1-116.6500002 0 58.29999961 58.29999961 0 0 1 116.6500002 0zM891.68333362 134.00000038999997a108.29999971 108.29999971 0 1 0-216.65000039 0 108.29999971 108.29999971 0 0 0 216.65000039 0z m-50.0000001 0a58.29999961 58.29999961 0 1 1-116.65000019 0 58.29999961 58.29999961 0 0 1 116.65000019 0zM366.68333304 609h333.30000058a24.99999961 24.99999961 0 1 1 0 50.0000001H366.68333304a24.99999961 24.99999961 0 1 1 0-50.0000001zM258.33333323 550.65000029v-333.30000058a24.99999961 24.99999961 0 1 1 50.0000001 0V550.65000029a24.99999961 24.99999961 0 1 1-50.0000001 0zM758.33333333 550.65000029v-333.30000058a24.99999961 24.99999961 0 1 1 50.0000001 0V550.65000029a24.99999961 24.99999961 0 1 1-50.0000001 0zM366.68333304 108.99999990000003h333.30000058a24.99999961 24.99999961 0 1 1 0 50.0000001H366.68333304a24.99999961 24.99999961 0 1 1 0-50.0000001z"  horiz-adv-x="1080" />

    
    <glyph glyph-name="tihuantupian" unicode="&#58988;" d="M595.84765625 673.21508789c80.28808594-8.05847168 144.7064209-56.35986328 158.45031739-139.21875h-46.47216798l74.99816895-111.58264161 75.04760742 111.58264161h-51.76208496c-13.74389648 111.58264161-98.23425293 184.10888672-204.97192382 194.44152833-14.7821045 1.18652344-28.4765625-11.46972656-28.47656251-27.58666994 0.98876953-13.84277344 10.48095703-26.44958497 23.18664551-27.63610839z m-116.18041992 56.40930176H218.7803955c-14.7821045 0-26.40014648-12.65625-26.40014647-28.77319336v-248.52722168c0-16.11694336 11.618042-28.77319336 26.40014648-28.77319336h260.88684082c14.7821045 0 26.40014648 12.65625 26.40014648 28.77319336V700.85119629c0 16.11694336-11.618042 28.77319336-26.40014648 28.77319335z m-25.36193848-250.85083008H244.14233398V674.40161133h210.21240235v-195.62805176h-0.04943848zM428.94335937 96.76245116999996c-89.78027344 8.05847168-158.45031739 67.87902833-161.61437988 166.8548584h49.63623048L242.01647949 375.19995116999996l-74.99816894-111.5826416h49.63623047c2.07641602-127.74902344 91.85668945-210.55847168 207.04833984-222.07763671 14.7821045-1.13708497 28.52600097 11.51916504 28.52600097 27.63610839a27.53723145 27.53723145 0 0 1-23.28552245 27.58666992z m378.20434571 249.71374512H546.21142578c-14.83154297 0-26.40014648-12.70568848-26.40014648-28.77319337v-249.71374511c0-16.06750489 11.56860352-28.72375489 26.40014648-28.72375489h260.88684083c14.7821045 0 26.35070801 12.65625 26.350708 28.72375489V317.70300292c0.04943848 16.06750489-12.60681153 28.77319336-26.30126953 28.77319337z m-25.41137695-250.85083008H571.57336426V290.11633300000005h210.16296386v-194.49096678z"  horiz-adv-x="1024" />

    
    <glyph glyph-name="tuzhangshenpi-" unicode="&#58930;" d="M248.328125 85.17187473000001h527.34375a26.3671875 26.3671875 0 0 0 2.53125-52.61132758L775.671875 32.43749973000001H248.328125a26.3671875 26.3671875 0 0 0-2.53125 52.61132839L248.328125 85.17187473000001h527.34375H248.328125zM512 735.56250027c97.08398438 0 175.78124973-78.69726535 175.78124973-175.78125054 0-60.82031223-31.14843777-115.57617215-79.80468723-147.30468723l14.09765598-81.2109375H775.671875a52.734375 52.734375 0 0 0 52.734375-52.734375v-105.46875a52.734375 52.734375 0 0 0-52.734375-52.734375H248.328125a52.734375 52.734375 0 0 0-52.734375 52.734375v105.46875a52.734375 52.734375 0 0 0 52.734375 52.734375h153.59765652l14.11523383 81.19335965-4.49999972 3.04101508A175.78124973 175.78124973 0 0 0 336.21875027 559.78124973c0 97.08398438 78.69726535 175.78124973 175.78124973 175.78125054z"  horiz-adv-x="1024" />

    
    <glyph glyph-name="caijian" unicode="&#59087;" d="M818.0736 145.06666700000005H853.333333a34.133333 34.133333 0 0 0 0-68.266667h-35.396266l-0.1024-34.2016a34.133333 34.133333 0 0 0-68.266667 0.136533L750.865067 588.8H409.6a34.133333 34.133333 0 0 0 0 68.266667h375.466667a34.133333 34.133333 0 0 0 34.133333-34.2016L818.0736 145.06666700000005zM238.933333 588.8H204.8a34.133333 34.133333 0 1 0 0 68.266667h34.133333V691.2a34.133333 34.133333 0 1 0 68.266667 0v-546.133333h341.333333a34.133333 34.133333 0 0 0 0-68.266667H273.066667a34.133333 34.133333 0 0 0-34.133334 34.133333V588.8z m136.533334-102.331733c0 18.807467 15.223467 34.065067 34.065066 34.065066h239.069867c18.807467 0 34.065067-15.223467 34.065067-34.065066v-239.069867c0-18.807467-15.223467-34.065067-34.065067-34.065067h-239.069867a34.030933 34.030933 0 0 0-34.065066 34.065067v239.069867z"  horiz-adv-x="1024" />

    
    <glyph glyph-name="fenshua-shixin" unicode="&#59671;" d="M868.24999971 378.375c0 20.62500029-7.49999971 37.50000029-22.5 52.49999971L558.87499971 719.62500029c-28.125 28.125-76.87500029 28.125-104.99999942 0l-105.00000029-105.00000029c-28.125-28.125-28.125-74.99999971 0-105.00000029l286.875-286.875c13.12499971-13.12499971 31.87500029-22.5 52.49999971-22.5 20.62500029 0 37.50000029 7.49999971 52.50000058 22.5l28.125 28.125 20.62499942-20.62499942c9.37500029-9.37500029 9.37500029-24.37499971 1.87500058-33.75l-75.00000058-63.75000058c-9.37500029-9.37500029-24.37499971-9.37500029-35.62499971 0L493.25000029 322.125c-28.125 28.125-74.99999971 28.125-105.00000029 0l-7.49999971-5.625-46.87500058 46.87499971c-9.37500029 9.37500029-24.37499971 9.37500029-35.62499971 0l-15.00000029-14.99999942-106.875-106.875c-28.125-28.125-28.125-74.99999971 0-105.00000029l86.25000058-88.12500029c15.00000029-15.00000029 33.75-22.5 52.49999971-22.5s37.50000029 7.49999971 52.49999971 22.5l106.875 106.875 15.00000029 15.00000029c3.75000029 3.75000029 7.49999971 11.25 7.49999971 16.875s-1.87499971 13.12499971-7.49999971 16.875l-74.99999971 74.99999971 7.49999971 7.50000058c9.37500029 9.37500029 24.37499971 9.37500029 35.62499971 0l1.87500058-1.87500058 189.37499942-189.37499942c15.00000029-15.00000029 33.75-22.5 52.50000058-22.5 18.74999971 0 37.50000029 7.49999971 50.625 20.62499942l73.125 63.75000058c28.125 28.125 28.125 74.99999971 0 104.99999942l-20.62500029 20.62500029 43.12500029 43.12500029c13.12499971 13.12499971 20.62500029 31.87500029 20.62499942 52.49999971z m-97.49999971-20.62500029c-5.625-3.75000029-11.25-7.49999971-16.875-7.49999971-5.625 0-13.12499971 1.87499971-16.875 7.49999971L489.5 612.75000029c-9.37500029 9.37500029-9.37500029 26.25000029 0 35.62499971s26.25000029 9.37500029 35.62499971 0L774.50000029 393.37500029c7.49999971-11.25 7.49999971-26.25000029-3.75000029-35.62500058z"  horiz-adv-x="1024" />

    
    <glyph glyph-name="shebeijihuo" unicode="&#58964;" d="M620.13121796 492.13121796c-40.09151459 0-77.6802063-10.89191438-109.84611512-29.94117737L421.15679932 551.31834412l64.79530334 64.79530334c21.13494873 21.08860016 21.13494873 55.34019471 0 76.47514343-21.08860016 21.13494873-55.34019471 21.13494873-76.42879486 0L344.68165588 627.74713898 279.88635253 692.58879089c-21.08860016 21.13494873-55.34019471 21.13494873-76.47514342 0-21.08860016-21.08860016-21.13494873-55.34019471 0-76.47514342l77.63385772-77.63385774-1e-8 1e-8 0 0 152.71854402-152.76489259c-19.00291443-32.16590881-29.94117737-69.75460053-29.94117737-109.84611511 0-119.48661804 96.82216644-216.30878449 216.26243591-216.30878448C739.617836 59.559997560000056 836.44000244 156.382164 836.44000244 275.86878204000004 836.44000244 395.30905151 739.617836 492.13121796 620.13121796 492.13121796L620.13121796 492.13121796zM620.13121796 167.69121551C560.43425751 167.69121551 512 216.12547301999996 512 275.86878204000004 512 335.56574249000005 560.43425751 384 620.13121796 384c59.74330902 0 108.17756653-48.43425751 108.17756652-108.13121796C728.30878449 216.12547301999996 679.87452698 167.69121551 620.13121796 167.69121551L620.13121796 167.69121551z"  horiz-adv-x="1024" />

    
    <glyph glyph-name="zanwushuju" unicode="&#58926;" d="M880.03679895 568.0405330799999l0.02023599 0L511.99704852 752.06588855 144.60570267 568.3761181699999l-0.6846611 0L143.92104156 199.96452611999996l368.07600696-184.03041467 368.08106617 184.03041467L880.07811468 568.0405330799999 880.03679895 568.0405330799999 880.03679895 568.0405330799999 880.03679895 568.0405330799999zM511.99704852 707.48199188l276.77834391-138.74162091-105.39813374-53.13541168L405.27006623 653.93173618 511.99704852 707.48199188 511.99704852 707.48199188 511.99704852 707.48199188zM357.03942273 627.82609222l281.67805371-135.71882639-126.74066391-61.38759813L235.22292007 568.0405330799999 357.03942273 627.82609222 357.03942273 627.82609222 357.03942273 627.82609222zM189.92991003 521.48865793l14.62830057 0-14.62830057 0.53794748 0 23.00190463L489.00020309 395.48914764l0-322.06798141L189.92991003 222.95715610000002 189.92991003 521.48865793 189.92991003 521.48865793 189.92991003 521.48865793zM834.06418701 499.01458237l0-276.0574271L534.99305102 73.42116623000004 534.99305102 395.48914764 834.06418701 545.02851004 834.06418701 499.01458237 834.06418701 499.01458237 834.06418701 499.01458237z"  horiz-adv-x="1024" />

    
    <glyph glyph-name="quanxianfenpei" unicode="&#58893;" d="M561.43847656 760.27624512l265.08911133-153.06152345a49.43847656 49.43847656 0 0 0 24.42260742-48.25195311l-28.17993164-253.37219239a296.63085938 296.63085938 0 0 0-160.87280273-231.86645508l-127.55126953-64.61608887a49.43847656 49.43847656 0 0 0-44.69238282 1e-8l-127.55126953 64.56665039a296.63085938 296.63085938 0 0 0-160.92224121 231.91589355L173.04980469 559.01220703a49.43847656 49.43847656 0 0 0 24.42260742 48.25195313L462.56152344 760.27624512a98.87695313 98.87695313 0 0 0 98.87695312-1e-8z m-68.22509765-39.89685059l-5.93261719-2.91687012L222.19165039 564.45043945l28.17993164-253.3227539a247.19238281 247.19238281 0 0 1 123.59619141-187.66845703l10.43151856-5.58654786L512 53.207153319999975l127.55126953 64.61608887a247.19238281 247.19238281 0 0 1 132.49511719 181.43920898l1.63146973 11.81579591 28.17993163 253.32275389L536.71923828 717.46252442a49.43847656 49.43847656 0 0 1-43.50585937 2.91687011zM512 631.19238281a148.31542969 148.31542969 0 0 0 24.71923828-294.55444336V285.12304687000005h49.43847656a24.71923828 24.71923828 0 1 0 0-49.43847656h-49.43847656v-26.30126953h48.35083008a24.71923828 24.71923828 0 0 0 24.32373047-20.31921387l0.39550781-4.44946288a24.71923828 24.71923828 0 0 0-20.26977539-24.32373048l-4.44946289-0.3955078H512a24.71923828 24.71923828 0 0 0-24.32373047 20.26977538l-0.39550781 4.4494629V336.58850097000004A148.31542969 148.31542969 0 0 0 512 631.19238281z m0-49.43847656a98.87695313 98.87695313 0 1 1 0-197.75390625 98.87695313 98.87695313 0 0 1 0 197.75390625z"  horiz-adv-x="1024" />

    
    <glyph glyph-name="jiaobiao" unicode="&#59330;" d="M746.666667 746.666667a64 64 0 0 0 64-64v-661.333334l-298.666667 133.333334L213.333333 21.333333V682.666667a64 64 0 0 0 64 64h469.333334z m0-64H277.333333v-562.666667l234.666667 104.746667 234.666667-104.746667V682.666667z m-106.666667-256v-64H384v64h256z m0 149.333333v-64H384v64h256z"  horiz-adv-x="1024" />

    
    <glyph glyph-name="touming" unicode="&#58917;" d=""  horiz-adv-x="1024" />

    
    <glyph glyph-name="gouxuan" unicode="&#59190;" d="M186.4 415.7l219.5-253.8c7.8-9 21.4-10 30.4-2.2 0.6 0.5 1.2 1.1 1.7 1.7L839.6 596c7.6 8.2 7.6 20.9-0.1 29.1-7.7 8.2-20.4 9.1-29.2 2.1L433.8 322.4c-7.3-5.9-17.5-6.4-25.3-1.3l-194 126.3c-9 5.8-20.8 4.2-27.9-3.8-7.1-7.9-7.1-19.9-0.2-27.9z"  horiz-adv-x="1024" />

    
    <glyph glyph-name="weigouxuanv2" unicode="&#59024;" d="M790.09143067 696.8528595c19.170928 0 34.76142883-15.59050083 34.76142883-34.76142884l0-556.18286133c0-19.170928-15.59050083-34.76142883-34.76142884-34.76142883L233.90856933 71.14714049999998c-19.170928 0-34.76142883 15.59050083-34.76142883 34.76142884L199.1471405 662.09143067c0 19.170928 15.59050083 34.76142883 34.76142884 34.76142883L790.09143067 696.8528595M790.09143067 731.61428833L233.90856933 731.61428833C195.51457119 731.61428833 164.38571167 700.48542881 164.38571167 662.09143067l0-556.18286133c0-38.39399814 31.12885952-69.52285766 69.52285766-69.52285767l556.18286133 0c38.39399814 0 69.52285766 31.12885952 69.52285767 69.52285767L859.61428833 662.09143067C859.61428833 700.48542881 828.48542881 731.61428833 790.09143067 731.61428833L790.09143067 731.61428833z"  horiz-adv-x="1024" />

    
    <glyph glyph-name="yigouxuan" unicode="&#59025;" d="M772.71071625 731.61428833L251.28928375 731.61428833C203.31851196 731.61428833 164.38571167 692.68148804 164.38571167 644.71071625l0-521.42143249c0-47.9707718 38.93280029-86.90357209 86.90357209-86.90357209l521.42143249 0c47.9707718 0 86.90357209 38.93280029 86.90357208 86.90357209L859.61428833 644.71071625C859.61428833 692.68148804 820.68148804 731.61428833 772.71071625 731.61428833zM816.16250229 123.28928374999998c0-24.02883768-19.42294837-43.45178603-43.45178604-43.45178604L251.28928375 79.83749770999998c-23.98538589 0-43.45178603 19.42294837-43.45178604 43.45178604L207.83749771 644.71071625c0 23.98538589 19.46640015 43.45178603 43.45178604 43.45178604l521.42143249 0c24.02883768 0 43.45178603-19.46640015 43.45178605-43.45178605L816.16250229 123.28928374999998zM450.60262632 199.63407182000003L266.19324636 384 327.67752361 445.48427725 450.55917454 322.55917453999996 696.36592818 568.3659281800001 757.80675364 506.88165093Z"  horiz-adv-x="1024" />

    
    <glyph glyph-name="yigouxuan1" unicode="&#58925;" d="M511.63790178 384.36209822m-365.35710095-1e-8a365.35710097 365.35710097 0 1 1 730.71420192 0 365.35710097 365.35710097 0 1 1-730.71420192 0ZM496.71945524 257.77256153999997L344.71062373 380.01691959000004l27.51946452 34.10965207 121.44774197-97.69409896 187.56687641 185.10460855 30.77834845-31.21286631z"  horiz-adv-x="1024" />

    
    <glyph glyph-name="kegouxuan" unicode="&#58900;" d="M512.43451786 736.03188658c47.57970572 0 93.71101856-9.34213401 137.09038496-27.66430379 41.93097353-17.74281263 79.58918811-43.16210747 111.96076869-75.46126841 32.3715806-32.3715806 57.7184558-70.02979517 75.46126844-111.96076869 18.39458943-43.37936641 27.66430378-89.51067924 27.66430378-137.09038498S855.26910973 290.14414215 836.94693995 246.76477575c-17.74281263-41.93097353-43.16210747-79.58918811-75.46126844-111.96076869-32.3715806-32.3715806-70.02979517-57.7184558-111.96076869-75.46126844-43.37936641-18.39458943-89.51067924-27.66430378-137.09038496-27.66430378s-93.71101856 9.34213401-137.09038496 27.66430378c-41.93097353 17.74281263-79.58918811 43.16210747-111.96076869 75.46126843-32.29916096 32.3715806-57.7184558 70.02979517-75.46126844 111.96076872-18.39458943 43.37936641-27.66430378 89.51067924-27.66430378 137.09038494s9.34213401 93.71101856 27.66430378 137.09038498C205.66490841 562.87651921 231.08420324 600.53473377 263.45578384 632.90631438c32.3715806 32.3715806 70.02979517 57.7184558 111.9607687 75.46126841C418.79591893 726.76217223 464.92723179 736.03188658 512.43451786 736.03188658m0 17.59797335C308.21112346 753.6298599300001 142.65981865 588.0785551 142.65981865 383.85516070999995s165.55130482-369.77469922 369.77469921-369.77469921 369.77469922 165.55130482 369.77469921 369.77469921S716.73033191 753.6298599300001 512.43451786 753.6298599300001z"  horiz-adv-x="1024" />

    
    <glyph glyph-name="shuffling-banner-fill" unicode="&#59277;" d="M181.333333 605.546667v-497.237334h509.546667v-64H223.189333a105.856 105.856 0 0 0-105.749333 101.248l-0.106667 4.586667V605.546667h64zM834.901333 704a64 64 0 0 0 64-64v-423.381333a64 64 0 0 0-64-64H293.333333a64 64 0 0 0-64 64V640a64 64 0 0 0 64 64h541.546667z m-70.208-143.189333c-110.314667-1.152-186.944-41.834667-224.768-123.029334l-2.56-5.674666-2.453333-5.461334c-30.634667-65.28-88.170667-96-178.794667-93.269333l-0.042666-64-7.317334 0.213333c118.272-4.949333 201.962667 39.04 244.544 130.858667l2.773334 6.186667 2.346666 5.12c26.496 55.68 80.32 84.330667 166.293334 85.12z m-357.226666 13.44a39.381333 39.381333 0 1 1 0-78.762667 39.381333 39.381333 0 0 1 0 78.784z"  horiz-adv-x="1024" />

    
    <glyph glyph-name="gouxuan-youxiajiaogouxuan" unicode="&#59260;" d="M321.8-32.6H928V573.7zM685.5 51.8l-80.9 80.9c-7.4 7.4-7.4 19.5 0 27 7.4 7.4 19.5 7.4 27 0l80.9-80.9c7.4-7.4 7.4-19.5 0-27-7.5-7.4-19.7-7.4-27 0zM874.2 213.5L712.4 51.8c-7.4-7.4-19.5-7.4-27 0-7.4 7.4-7.4 19.5 0 27l161.7 161.7c7.4 7.4 19.5 7.4 27 0 7.5-7.5 7.5-19.5 0.1-27z"  horiz-adv-x="1024" />

    
    <glyph glyph-name="reeor" unicode="&#59232;" d="M512 746.666667c200.298667 0 362.666667-162.368 362.666667-362.666667s-162.368-362.666667-362.666667-362.666667S149.333333 183.701333 149.333333 384 311.701333 746.666667 512 746.666667z m0-64c-164.949333 0-298.666667-133.717333-298.666667-298.666667s133.717333-298.666667 298.666667-298.666667 298.666667 133.717333 298.666667 298.666667-133.717333 298.666667-298.666667 298.666667z m113.130667-140.266667l45.269333-45.269333L557.226667 384l113.152-113.130667-45.269334-45.269333L512 338.773333l-113.130667-113.152-45.269333 45.269334L466.773333 384l-113.152 113.109333 45.269334 45.269334L512 429.269333l113.109333 113.130667z"  horiz-adv-x="1024" />

    
    <glyph glyph-name="warning-fill" unicode="&#59280;" d="M541.14000031 712.90000031a60 60 0 0 0 23.29999969-23.30000062l298.03999969-536.46A60 60 0 0 0 810.00000031 64.00000031000002H213.99999969a60 60 0 0 0-52.45999969 89.13999938L459.56 689.59999969a60 60 0 0 0 81.58000031 23.30000062zM542 244.00000031000002h-60v-60h60v60z m0 259.15999969h-60V283.99999969h60V503.16z"  horiz-adv-x="1024" />

    
    <glyph glyph-name="baocun" unicode="&#58888;" d="M849.76367188 626.8417968900001q5.53710938-6.328125 6.32812499-14.63378908t0.79101563-13.05175782l0-424.77539062q0-37.17773438-25.3125-62.49023437t-67.23632813-25.3125l-457.20703124 0q-42.71484375 0-67.63183594 21.35742188t-24.91699219 64.86328125l0 462.74414062q0 42.71484375 24.91699219 68.42285156t67.63183593 25.70800782l419.23828126 0q7.91015625 0 15.82031249-1.97753907t11.07421875-5.14160156zM709.75390625 655.31835938q-1.58203125 24.52148438-26.10351563 24.52148437l-344.88281249 0q-11.86523438 0.79101563-18.98437502-6.328125t-7.11914061-16.61132813l0-128.93554687q0-7.91015625 3.55957031-16.2158203t9.88769531-15.02929689 14.63378907-11.07421875 17.79785156-4.35058593l300.5859375 0q21.35742188 0 35.99121094 12.65625t14.63378906 37.96875l0 123.39843749zM709.75390625 299.36132812000005q0 34.01367188-34.8046875 34.80468751l-326.68945313 0q-18.19335938 0-26.89453124-9.4921875t-8.70117188-25.3125l0-115.48828126 397.08984375 0 0 115.48828125z"  horiz-adv-x="1024" />

    
    <glyph glyph-name="wenjian" unicode="&#58910;" d="M570.93220902 705.35782241a69.52285766 69.52285766 0 0 0 49.15266036-20.37019728l143.44882966-143.44882966a69.52285766 69.52285766 0 0 0 20.39337158-49.12948609v-380.31320572a49.43075181 49.43075181 0 0 0-49.45392609-49.45392607H289.52685547a49.43075181 49.43075181 0 0 0-49.43075181 49.45392607V655.90389634c0 27.32248306 22.13144302 49.45392609 49.43075181 49.45392607h281.40535355z m-7.94878006-46.34857178H289.52685547a3.08218002 3.08218002 0 0 1-2.94313431-2.13203429l-0.13904571-0.97332v-543.80779268c0-1.39045716 0.88062287-2.54917146 2.08568573-2.94313431l0.99649429-0.16222h444.94628906a3.08218002 3.08218002 0 0 1 2.94313431 2.13203431l0.13904571 0.97332V484.43735505H615.82080078a52.83737182 52.83737182 0 0 0-52.7215004 49.19900893l-0.11587142 3.61518861V659.0324249299999z m145.76625824-128.22332381l-99.41768647 99.41768646v-92.92888641a6.48880005 6.48880005 0 0 1 5.00564576-6.32658005l1.48315429-0.18539428h92.92888642z"  horiz-adv-x="1024" />

    
    <glyph glyph-name="wenjianjia" unicode="&#58958;" d="M279.96875 616.03125m63.28125 0l400.78125 0q63.28125 0 63.28125-63.28125l0-337.5q0-63.28125-63.28125-63.28125l-400.78125 0q-63.28125 0-63.28125 63.28125l0 337.5q0 63.28125 63.28125 63.28125ZM174.5 594.9375a63.28125 63.28125 0 0 0 63.28125 63.28125h184.29609375a63.28125 63.28125 0 0 0 60.85546875-45.9L499.934375 552.75H786.21875a63.28125 63.28125 0 0 0 63.28125-63.28125v-337.5a63.28125 63.28125 0 0 0-63.28125-63.28125H237.78125a63.28125 63.28125 0 0 0-63.28125 63.28125V594.9375z"  horiz-adv-x="1024" />

    
    <glyph glyph-name="renyuanzhuangtai" unicode="&#59005;" d="M506.5263847 705.5782584c-162.52369659 0-294.35080872-131.51173617-294.35080873-294.35080873v-0.31537595c0.31537595-162.52369659 131.82711212-294.03543278 294.35080873-294.03543275 73.16720096 0 140.02688486 26.70182352 191.43315113 70.85444483l-0.31537593 0.73587701-0.52562683 1.26150316c-0.8410021 2.62813206-5.57164006 13.56116197-9.56640099 21.55068451l-1.15637806 2.31275612c-5.25626474 3.67938501-11.56378182 9.14589996-17.76617377 18.39692567l-0.31537593 0.52562678-0.21025086 0.42050107c-2.207631 3.78451011-3.88963585 7.56902086-5.15113901 11.24840585a227.34394928 227.34394928 0 0 0-156.42642975-61.91879511c-126.57084802 0-228.64750287 102.39203145-228.96287881 228.64750286v0.31537595c0 126.57084802 102.39203145 228.96287881 228.96287881 228.96287946s228.85775373-102.39203145 228.85775373-228.96287946v-0.94612719c7.35877001 1.36662891 15.34829193 2.10250589 23.86344062 2.10250525 16.08416892 0 29.85558173-2.52300694 41.52448928-6.83314322 0.10512511 1.78712994 0.10512511 3.57425991 0.1051251 5.36138921v0.31537595c0 162.83907254-131.82711212 294.35080872-294.35080873 294.35080874zM637.32326878 411.22744968v-0.32588839c-0.31537595-71.9477476-58.54427361-130.49202121-130.81790898-130.49202058s-130.50253365 58.54427361-130.81790958 130.49202058v0.32588838c0 72.28414843 58.54427361 130.81790961 130.81790959 130.8179096s130.81790961-58.54427361 130.81790897-130.8179096zM939.53744941 64.83962344999998c0-4.09988606-4.09988606-6.72801876-6.72801875-6.72801876H584.21397343c-3.99476096 0-6.62289301 3.99476096-6.62289366 6.72801876 0 41.41936355 25.33519462 48.04225719 65.38792992 57.39840736 45.4141245 10.7227797 68.12118707 36.05797432 72.11594801 41.41936353s3.99476096 13.35091176 3.99476095 20.07893052c0 2.62813206-1.26150316 5.36138985-2.62813206 9.35615081l-1.36662889 2.62813205c-0.42050106 1.26150316-1.15637804 3.25888396-2.20763099 5.6767658-2.207631 5.36138985-5.67676582 12.82528496-8.41002298 18.39692567 0 1.36662891-2.73325778 5.36138985-5.36138986 7.98952192-3.99476096 2.73325778-9.3561508 6.72801876-14.71754065 14.71753999-3.78451011 6.5177679-5.36138985 12.72015987-5.36138985 18.39692569 0.10512511 8.41002295 3.78451011 15.66366787 9.35615081 20.39430581v2.6281327c-5.36138985 13.35091176-7.98952191 30.69658448-6.62289301 52.14214324 1.05125295 19.97380477 16.08416892 46.36025235 52.5626443 54.66515022 7.35877001 1.78712994 15.66366787 2.73325778 24.91469358 2.73325715 16.29441978 0 29.64533153-3.0486331 40.36811059-8.09464701 25.33519462-11.56378182 36.16309943-33.32471654 37.00410217-49.30376036 1.36662891-21.44555876-1.26150316-38.7912315-6.62289364-53.50877215v-2.62813205c9.3561508-6.72801876 14.71754066-21.34043368 3.99476094-37.42460324-6.72801876-7.98952191-10.7227797-11.98428286-14.71754001-14.71753999-2.62813206-2.62813206-5.36138985-6.62289301-5.36138986-7.98952192-3.99476096-7.98952191-9.3561508-21.34043368-10.61765397-24.07369147l-1.36662888-2.62813205c-1.36662891-2.73325778-2.62813206-6.72801876-2.62813207-9.35615081 0-7.98952191 0-14.71754066 3.99476095-20.07893052s26.70182352-30.69658448 72.11594803-41.41936353c41.41936355-9.3561508 65.38792991-15.97904382 64.12642611-57.39840736z"  horiz-adv-x="1156" />

    
    <glyph glyph-name="shouqi1" unicode="&#58974;" d="M756.00978088 700.71524047c21.69113159 0 32.53669739-10.5597496 32.5366974-31.67152404v-570.08743286c0-21.11177444-10.8455658-31.67152404-32.5366974-31.67152404s-32.53669739 10.5597496-32.53669739 31.67152404V669.04371643c0.00772476 21.11177444 10.85329056 31.67152404 32.53669739 31.67152404M583.53902053 120.84053420999999L302.3963089 384l281.14271163 263.15946579c6.21843338 5.77039718 9.76409912 13.76552582 9.80272294 22.13144302 0 27.91728974-36.0669136 41.89910888-57.14006424 22.13144302L255.06669236 428.30923462c-26.14831924-24.4720459-26.14831924-64.14642334 0-88.61846924l281.13498687-263.15946579c21.0808754-19.74449158 57.14006423-5.76267243 57.14006424 22.13144302-0.03089904 8.38136673-3.56884003 16.39194489-9.80272294 22.1777916"  horiz-adv-x="1024" />

    
    <glyph glyph-name="sousuo" unicode="&#59043;" d="M841.29578781 99.93810082000005L663.83251381 277.40369224999995c37.52457619 47.08705902 59.96269226 106.73380852 59.96269227 171.62798881C723.79520608 601.2558403 600.3929062 724.66200256 448.16488457 724.66200256 295.93531799 724.66200256 172.5337906 601.2558403 172.5337906 449.03168106c0-152.22956658 123.40616226-275.63495636 275.63109397-275.63495636 62.88187981 0 120.83072663 21.07160569 167.21096993 56.51667596l177.94761657-177.94761659c6.62784576-6.62630081 15.30738831-9.9402237 23.98693085-9.9402237 8.67954254 0 17.35908508 3.31392288 23.98538589 9.9402237C854.54684448 65.21684074999996 854.54684448 86.68858909999994 841.29578781 99.93810082000005L841.29578781 99.93810082000005zM235.89769554 449.03168106c0 117.2294426 95.03697396 212.26332665 212.26718903 212.26332665 117.2325325 0 212.26641655-95.03388405 212.26641655-212.26332665 0-117.23407746-95.03388405-212.27182388-212.26641655-212.27182388C330.9346695 236.75985718000004 235.89769554 331.79760361 235.89769554 449.03168106L235.89769554 449.03168106zM334.44866371 554.89413643c-7.08515167 3.83225441-15.92923164 1.19193077-19.75839615-5.89244842-15.94854355-29.50318337-25.6662941-61.52232171-28.88442994-95.17601968-0.76861382-8.01444053 5.10915757-15.13358116 13.12359811-15.90219496 0.47275543-0.04248619 0.94164848-0.06566048 1.40745163-0.06566048 7.42658617 0 13.77325058 5.64757347 14.49474335 13.19312094 2.84502983 29.74419594 11.42878533 58.03459167 25.50793647 84.08944131C344.16950417 542.22011947 341.52840806 551.06497193 334.44866371 554.89413643L334.44866371 554.89413643zM334.44866371 554.89413643"  horiz-adv-x="1024" />

    
    <glyph glyph-name="zhongzhimima" unicode="&#59009;" d="M751.01958466 499.03715515h-26.23329164c2.54917146 12.00428009 3.84693146 24.19395447 3.89328003 36.42997742v36.42997741c0 100.57640076-91.39938354 182.10353852-204.21180724 182.10353852-112.76607514 0-204.16545868-81.48078919-204.16545868-182.14988709v-36.38362884c0-12.56046295 1.43680573-24.70378876 3.89328003-36.42997742h-26.23329163c-55.47924042 0-100.62274933-42.50164032-100.62274933-94.55108643v-283.97769928c0-52.46658325 45.14350891-95.01457214 100.57640076-95.01457214h452.13031769c55.43289185 0 100.6690979 42.54798889 100.6690979 95.01457215V404.5324173c0.92697143 51.26152039-43.01147461 93.62411499-98.2126236 94.50473785h-1.48315429z m-348.54125977 72.85995483c0 60.25314331 54.92305756 109.24358368 122.49927521 109.24358369 67.57621765 0 122.49927521-48.99044037 122.49927521-109.24358369v-72.85995483H402.43197632V571.89710998z m241.10527039-481.74705505l-23.31333161 32.95383454a192.06848145 192.06848145 0 0 0-159.43908692-16.45374299c-77.30941773 25.9552002-123.0091095 94.921875-115.26889801 165.18630982l53.99608613 0.46348571c-8.29639435-51.21517182 23.82316589-101.96685791 79.71954346-121.01612091 38.42296601-12.9776001 80.18302917-7.41577148 112.3025894 10.84556581a5744.9054718 5744.9054718 0 0 0-24.84283446 34.66873169l129.86869812 8.25004578-53.02276611-114.89810945z m63.68293761 157.8168869l-53.94973755-0.41713714c8.25004578 51.16882325-23.82316589 101.92050935-79.71954344 120.96977234a137.7943039 137.7943039 0 0 1-117.67902375-14.32170868l27.71644592-38.56201172-120.50628662-0.88062286 41.25022888 112.30258941 22.38636018-31.65607453c46.20952607 27.34565735 109.84611511 36.84711457 165.78884124 18.21498871 76.79958344-26.41868591 122.49927521-95.38536072 114.71271515-165.64979553z"  horiz-adv-x="1024" />

    
    <glyph glyph-name="return" unicode="&#59231;" d="M486.592 401.472l-45.226667-45.269333-171.989333 171.882666 171.946667 172.032 45.269333-45.226666-86.826667-86.869334h195.413334c122.88 0 222.826667-97.962667 226.069333-220.032l0.085333-6.122666c0-124.885333-101.248-226.133333-226.133333-226.133334H199.466667v64H595.2a162.133333 162.133333 0 1 1 0 324.266667l-211.2 0.021333 102.592-102.549333z"  horiz-adv-x="1024" />

    
    <glyph glyph-name="yuangongguanli" unicode="&#59063;" d="M512 571.49999971c64.37999971 0.07499971 121.05-42.37499971 138.99750029-104.1075a144.27 144.27 0 0 0-61.5375-162.25499971c83.88749971-31.87500029 139.34999971-112.1625 139.37249971-201.78 0-55.80749971-433.67249971-55.80749971-433.67249971 0 0.045 89.65500029 55.51499971 169.97249971 139.42499942 201.87749971a144.27 144.27 0 0 0-61.38 162.15000029C391.13 529.0350000000001 447.695 571.47 512 571.49999971z m180.65999971 135c79.8525 0 144.60000029-64.50000029 144.60000029-144.0225a143.82749971 143.82749971 0 0 0-67.77749971-122.04749971C853.66999971 408.75 909.42499971 328.34249970999997 909.50000029 238.49999971c0-22.32749971-75.52500029-35.325-163.575-39.04499971a252.36749971 252.36749971 0 0 1-94.10250058 114.00000029 178.88249971 178.88249971 0 0 1 40.8375 114.06749942c-0.08250029 83.41499971-57.49499971 155.86499971-138.77249942 175.12500058C571.85 664.25250029 628.42249971 706.5750002899999 692.66750029 706.49999971z m-361.31999942 0c64.29750029 0.0225 120.88500029-42.345 138.87-103.98749942C388.88749971 583.35 331.40750029 510.9 331.34000029 427.47749971c0-43.3125 15.3-83.0025 40.88999971-113.95499942A253.10999971 253.10999971 0 0 1 278.07499971 199.46249970999997C190.025 203.13750029000005 114.49999971 216.12750000000005 114.49999971 238.46250028999998c0.05249971 89.865 55.8 170.325 140.02500058 202.06499942a143.57999971 143.57999971 0 0 0-67.725 121.95 144.0675 144.0675 0 0 0 42.39 101.9025A144.50249971 144.50249971 0 0 0 331.34000029 706.49999971z"  horiz-adv-x="1024" />

    
    <glyph glyph-name="jiaoseguanli" unicode="&#58955;" d="M701.72015381 368.93671416999996c-33.29372407-22.47905732-73.15349579-35.53390503-116.10317231-35.53390502-42.79518127 0-82.50045776 12.9776001-115.7169342 35.22491455-89.91622925-43.95389558-152.02331543-137.42351532-152.02331543-245.57018281 0-114.48097229 536.17572785-112.85877228 536.17572785 0 0 108.45565796-62.18433381 202.00252534-152.33230591 245.87917329zM405.39828492 546.99247742c0 101.1171341 80.64651489 183.15410615 180.21869659 183.15410615S765.8356781 648.18685913 765.8356781 546.99247742c0-101.1171341-80.64651489-183.07685852-180.2186966-183.07685852S405.39828492 445.87534333 405.39828492 546.99247742zM286.20520782 113.55608367000002c0-4.17137146 0.61798096-8.18824768 1.85394288-12.12787627C220.31298828 112.47461699999997 169.79304505 134.18119811999998 169.79304505 166.85694121999995c0 93.62411499 53.68709565 174.50237274 131.55269623 212.58544923 27.19116211-18.23043823 59.48066711-29.27684784 94.31934356-30.43556215-66.81919099-56.00452423-109.45987702-140.66791535-109.45987702-235.45074462zM375.42620849 546.99247742c0 46.50306701 14.59980011 89.52999115 39.47353364 124.60041046-4.3258667 0.3862381-8.6517334 0.54073334-13.05484772 0.54073334-81.95972443 0-148.39267732-67.51441956-148.39267731-150.78735352s66.35570527-150.78735353 148.31542969-150.78735351c18.4621811 0 36.07463837 3.39889526 52.3738861 9.73320007C406.17076111 419.45665742 375.42620849 479.55530548 375.42620849 546.99247742z"  horiz-adv-x="1024" />

    
    <glyph glyph-name="jiaoseguanli1" unicode="&#58934;" d="M631.20965056 347.05597444a21.69899694 21.69899694 0 0 0 19.7574128-3.61350307l1.58203125-1.5280985 3.5955252-3.95507812c9.31241143-9.07870185 21.93270575-14.52592358 36.04514369-14.5259228a51.23623957 51.23623957 0 0 1 33.43838798 12.15287593l2.62473354 2.39102471 3.59552599 3.93710028a22.47203473 22.47203473 0 0 0 19.20010674 5.71688623l2.12135946-0.57528466s5.71688543-2.12136023 19.82932413-10.30118019l5.15957863-3.05619702c10.1573598-6.16632599 13.77086286-9.34836633 13.77086286-9.34836634 4.85395924-4.36856378 7.55060334-12.40456335 6.489924-19.03830773l-0.48539624-2.15731591-1.49214282-4.85395924a53.51939801 53.51939801 0 0 1 5.69890761-38.74178778c6.29217009-11.00230817 16.03604425-18.75066619 27.02037534-23.02934155l3.32586073-1.18652344 5.3932882-1.20450127c6.23823658-1.63596399 12.44051825-7.6944245 14.50794574-13.95063893l0.57528389-2.44495745c0.161799-1.40225519 0.71910503-7.19105121 0.59326172-19.23606165l-0.10786549-9.1326346c-0.23370881-11.91916711-1.1325907-16.70121654-1.1325907-16.70121654-1.09663502-6.59778949-6.90340887-13.19557898-13.14164544-15.47873742l-1.88765144-0.55730683-4.80002648-1.20450128a52.67444964 52.67444964 0 0 1-30.65185547-24.21586419 51.79354559 51.79354559 0 0 1-6.40003559-35.25412807l0.70112799-3.50563756 1.51012067-5.14160156c1.88765063-6.27419227-0.10786549-14.74165455-4.47642927-19.68550298l-1.81574083-1.72585165c-1.24045618-0.98876953-6.66970007-5.10564666-18.64279993-12.1888316l-5.21351214-2.9663086c-10.40904645-5.75284113-14.92143139-7.33487238-14.92143139-7.33487236a21.69899694 21.69899694 0 0 0-19.75741279 3.61350305l-1.56405341 1.52809852-3.59552599 3.95507812a52.00927734 52.00927734 0 0 1-69.39364326 2.3910247l-2.71462195-2.40900255-3.59552522-3.93710027a22.47203473 22.47203473 0 0 0-19.20010673-5.71688546l-2.15731513 0.57528389s-5.98654993 2.12136023-19.8113463 10.30118096l-5.15957863 3.05619624c-10.1573598 6.16632599-13.77086286 9.34836633-13.77086286 9.34836633-4.85395924 4.36856378-7.55060334 12.40456335-6.489924 19.03830852l0.48539623 2.15731514 1.51012068 4.85395922a53.51939801 53.51939801 0 0 1-5.71688622 38.7417878 52.69242748 52.69242748 0 0 1-27.30801613 23.10125212l-3.32586151 1.11461286-4.81800434 1.20450127a22.32821356 22.32821356 0 0 0-14.48996789 13.87872834l-0.57528388 2.51686804c-0.23370881 1.40225519-1.00674738 7.19105121-1.13259069 19.23606164v6.25621443l0.12584332 5.87868444c0.30561939 9.72589631 1.06068011 13.69895227 1.06068012 13.69895228 1.07865795 6.59778949 6.90340887 13.19557898 13.12366839 15.4787382l1.88765063 0.55730604 5.10564667 1.20450128a51.81152345 51.81152345 0 0 1 30.65185547 24.21586421 51.79354559 51.79354559 0 0 1 6.41801265 35.25412883l-0.71910505 3.5056368-1.49214283 5.14160156a22.23832592 22.23832592 0 0 0 4.45845143 19.68550297l1.83371867 1.72585241c1.22247834 0.98876953 6.65172223 5.10564666 18.64279995 12.18883162l7.51464843 4.20676477c8.75510462 4.7281159 12.60231726 6.09441619 12.60231724 6.09441542z m-112.89950341-18.6248221a233.70916228 233.70916228 0 0 0 11.39781599-0.26966448C496.35946356 293.03320311000004 476.04474397 246.39923616 476.04474397 195.23490794999998c0-43.72159113 14.83154297-84.13529858 39.94628906-116.8725586l-170.66162109 0.07191059c-97.69042969 0.43146272-171.88409945 4.44047436-174.81445313 41.11483467L170.42507116 121.83225304999996v12.71018275c0 105.29496654 92.13534247 191.1740946 206.31125696 193.83478381l5.44722096 0.05393273h136.14457592zM691.77627863 258.15660505000005c-39.8024679 0-71.91051129-32.17995398-71.91051131-71.73073524A72.09028736 72.09028736 0 0 1 691.77627863 114.33558245999996c39.8024679 0 71.91051129 32.52152903 71.91051128 71.73073523A72.09028736 72.09028736 0 0 1 691.77627863 258.15660505000005zM449.88729559 725.57492884c97.49267578 0 176.5223277-79.02965191 176.52232771-176.50434986 0-97.49267578-79.02965191-176.50434986-176.52232771-176.50435064-97.47469793 0-176.50434986 79.01167408-176.50434985 176.50435064C273.38294574 646.54527692 352.41259766 725.57492884 449.88729559 725.57492884z"  horiz-adv-x="1024" />

    
    <glyph glyph-name="quanxianguanli" unicode="&#58929;" d="M511.9613902 472.15149289c-37.35092644 0.44703921-66.50098944-28.37930509-66.71680144-65.97687401s28.7492688-66.48557421 66.28517747-66.42391321 66.45474371 29.11923252 66.14644024 66.53181994-28.37930509 65.42192806-65.71481626 65.86896728zM809.38143828 622.8809024899999L543.73202969 748.82273887a18.1282249 18.1282249 0 0 1-3.08303166 1.24862762 89.77787659 89.77787659 0 0 1-57.43687664 0 18.28237663 18.28237663 0 0 1-3.08303097-1.24862762L214.54134283 622.8809024899999A28.51804158 28.51804158 0 0 1 198.23210599 597.1375898599999v-196.29661542c0-108.24523545 47.4940999-205.14491553 134.80555174-273.6652898l145.90446533-103.37404546a56.94359168 56.94359168 0 0 1 66.03853426-0.07707621l147.06060221 104.1910491c86.2169752 67.68795609 133.72649107 164.60305142 133.72649107 272.84828686V597.0605136300001a28.87259004 28.87259004 0 0 1-16.38631231 25.82038884zM689.72898578 361.70188967c-26.82237399-4.54747129-43.71738653-21.22667182-50.60796207-47.15496595a68.75160222 68.75160222 0 0 1 3.08303167-44.70395715c1.27945811-3.08303167-0.15415173-9.51115204-2.68223747-11.77718006-19.08396503-17.0645795-41.62092475-28.28681361-66.28517673-36.65724401-13.50367811 20.65631065-32.01728198 32.98843664-57.03608243 33.52796733-23.81641855 0.50870019-43.40908308-8.00046668-57.88391658-27.54688691-1.81898881-2.45101024-6.30479913-5.62653266-8.23169391-4.91743502-25.15753693 9.34158506-48.81980377 21.41165332-68.13499603 40.18731564 14.42858703 38.46081758 7.49176649 68.58203524-21.48872883 88.77589145-7.87714545 5.48779619-18.09739514 8.01588193-27.59313192 10.65187365-7.58425723 2.1118763-13.04122293 4.23916855-12.85624143 13.48826287 0.36996372 20.30176217 0.29288821 40.61893959 0 60.93611776-0.10790599 8.49375163 4.42415005 11.03725263 11.86967079 13.04122292 10.55938292 2.86721897 21.5812203 5.99649638 30.83031534 11.63844358 25.51208541 15.67721538 36.54933803 49.32850395 18.99147358 88.11304023a214.07029114 214.07029114 0 0 0 63.52586375 39.47821798c6.52061183 2.62057649 8.32418467-0.80158839 11.45346208-4.74786803 19.76223149-24.89547921 48.12612134-32.95760688 78.61730345-23.23064286 13.87364182 4.40873481 23.40020911 13.78115107 32.37183044 24.54093074 1.75732783 2.12729154 6.65934831 4.30082881 8.46292115 3.3450894 20.28634694-10.68270415 40.32605212-21.82786278 60.25785059-33.15800361 6.08898713-3.4529954 6.67476283-8.06212766 3.56090139-14.95270249a64.43535818 64.43535818 0 0 1 47.26287266-90.50238949c10.14317347-1.83440406 16.34006659-4.62454752 16.17050036-16.34006661-0.26205772-18.88356758 0.23122723-37.78255114 0.67826644-56.66611941 0.15415173-10.00443698-4.57830178-13.64241459-14.3360963-15.36891195z"  horiz-adv-x="1024" />

    
    <glyph glyph-name="zuidahua" unicode="&#58886;" d="M762.46563805 670.42534744H390.16635756a35.78080543 35.78080543 0 0 1-35.78080543-35.78080543v-71.56161088H261.53436195a35.78080543 35.78080543 0 0 1-35.78080544-35.78080543v-393.58885979a35.78080543 35.78080543 0 0 1 35.78080544-35.78080543h393.58885979a35.78080543 35.78080543 0 0 1 35.78080543 35.78080543v93.38790204h71.56161088a35.78080543 35.78080543 0 0 1 35.78080544 35.78080544V634.64454201a35.78080543 35.78080543 0 0 1-35.78080544 35.78080543z m-107.34241631-407.54337405V133.7132659H261.53436195V527.3021257h393.58885979z m105.91118409 0H690.90402718V527.3021257a35.78080543 35.78080543 0 0 1-35.78080544 35.78080543H390.16635756V634.64454201H762.46563805z"  horiz-adv-x="1024" />

    
    <glyph glyph-name="zuidahuaxi" unicode="&#58957;" d="M759.31597901 631.31597901v-494.26116944H264.68402099V631.31597901h494.63195802m2.9663086 46.34857177h-500.5645752c-23.73046875 0-43.01147461-19.28100586-43.01147462-43.01147461v-500.93536376c0-23.73046875 19.28100586-43.01147461 43.01147462-43.01147462h500.93536376c23.73046875 0 43.01147461 19.28100586 43.01147461 43.0114746v500.5645752c0 24.10125732-19.28100586 43.38226318-43.38226317 43.38226319 0.37078857 0 0 0 0 0z"  horiz-adv-x="1024" />

    
    <glyph glyph-name="zhuti" unicode="&#59488;" d="M846.12242729 513.61396203L682.25691598 677.47947334a46.34879809 46.34879809 0 0 1-65.5483771 0l-20.56695241-20.56763136a46.36033996 46.36033996 0 0 0-32.76875709-13.580041H460.72273739a46.29040975 46.29040975 0 0 0-32.76875708 13.580041l-20.56695241 20.56763136a46.34879809 46.34879809 0 0 1-65.54837712 0L177.96159761 513.61396203a46.34879809 46.34879809 0 0 1 0-65.54837712l65.5483771-65.54905605a46.05889321 46.05889321 0 0 1 45.24756688-11.72587182c7.33520464 2.08568573 14.71589785-2.83862371 14.71589786-10.46305429V123.28928374999998c0-25.49194079 20.8568573-46.34879809 46.34879809-46.34879809H674.26110841c25.49194079 0 46.34879809 20.8568573 46.3487981 46.3487981V360.32760275c0 7.62443059 7.38137215 12.54874002 14.71589784 10.46305429a46.05889321 46.05889321 0 0 1 45.24756689 11.72587182l65.54837712 65.54905605a46.34879809 46.34879809 0 0 1 0 65.54837711z"  horiz-adv-x="1024" />

    
    <glyph glyph-name="close" unicode="&#59209;" d="M282.517333 682.624l-45.354666-45.162667L489.472 384 237.162667 130.538667l45.354666-45.162667L534.613333 338.645333l252.096-253.269333 45.354667 45.162667-252.288 253.44 252.288 253.482666-45.354667 45.162667L534.613333 429.376l-252.096 253.226667z"  horiz-adv-x="1045" />

    
    <glyph glyph-name="xitongweihu" unicode="&#58948;" d="M447.75195312 546.421875c-28.74023438 0-52.03125001-22.93945313-52.03124999-51.24023438 0-28.30078125 23.29101563-51.24023438 52.03125-51.24023437s52.03125001 22.93945313 52.03125 51.24023438c0 28.21289063-23.29101563 51.24023438-52.03125 51.24023437z m181.93359376-245.47851563l14.67773437 14.50195313c16.25976563 15.99609375 16.25976563 41.92382813 0 57.91992188l-25.40039063 24.9609375c8.17382813 13.97460938 14.58984375 29.09179689 19.07226563 45h27.421875c22.93945313 0 41.66015625 18.36914063 41.66015625 40.95703125v20.47851562c0 22.58789063-18.6328125 40.95703125-41.66015625 40.95703126h-27.15820313c-4.30664063 15.73242188-10.45898438 30.76171875-18.45703123 44.64843749l24.43359373 23.99414063c16.25976563 15.99609375 16.25976563 42.01171875 1e-8 57.91992188l-14.67773438 14.50195312c-16.25976563 15.99609375-42.62695313 15.99609375-58.79882813 0l-23.99414062-23.55468751c-14.58984375 8.34960938-30.41015625 14.94140625-47.109375 19.42382813v27.50976562c0 22.58789063-18.6328125 40.95703125-41.57226563 40.95703125H437.29296875c-22.93945313 0-41.57226563-18.36914063-41.57226564-40.95703125v-27.50976562c-16.69921875-4.48242188-32.51953125-11.07421875-47.19726561-19.42382813l-23.90625 23.55468751c-16.25976563 15.99609375-42.62695313 15.99609375-58.79882813 0L251.140625 672.28125001c-16.25976563-15.90820313-16.25976563-41.92382813 0-57.91992189l24.43359375-23.99414062c-7.91015625-13.88671875-14.15039063-28.91601563-18.36914063-44.64843751h-27.15820312c-23.02734375 0-41.57226563-18.36914063-41.57226563-40.95703124v-20.47851564c0-22.58789063 18.6328125-40.95703125 41.57226563-40.95703123h27.42187499c4.48242188-15.90820313 10.8984375-31.02539063 19.07226564-45l-25.40039063-24.9609375a40.48417969 40.48417969 0 0 1 0-57.91992188l14.67773438-14.50195313c16.25976563-15.99609375 42.62695313-15.99609375 58.79882812 1e-8l25.57617187 25.13671874c14.23828125-7.91015625 29.44335938-14.15039063 45.52734374-18.45703124v-26.27929689c0-22.58789063 18.6328125-40.95703125 41.57226564-40.95703124h20.83007812c22.93945313 0 41.57226563 18.36914063 41.57226563 40.95703124v26.27929689c16.08398438 4.30664063 31.37695313 10.45898438 45.52734375 18.45703124l25.57617187-25.13671874c16.25976563-15.99609375 42.62695313-15.99609375 58.88671875-1e-8z m-181.93359376 80.33203126c-63.19335938 0-114.43359375 50.44921875-114.43359374 112.58789062 0 62.2265625 51.24023438 112.67578125 114.43359375 112.67578125 63.19335938 0 114.43359375-50.44921875 114.43359375-112.67578125 0-62.13867188-51.24023438-112.58789063-114.43359375-112.58789062z m366.32812501-220.07812501h-13.18359376c-2.109375 7.64648438-5.00976563 14.94140625-8.87695312 21.70898437l11.77734375 11.68945314c7.91015625 7.734375 7.91015625 20.30273438 0 28.125l-7.11914063 7.03125c-7.91015625 7.734375-20.65429689 7.734375-28.56445312 0l-11.6015625-11.42578125c-7.03125001 4.04296875-14.765625 7.20703125-22.8515625 9.40429687v13.359375c0 10.98632813-9.05273438 19.86328125-20.21484375 19.86328125h-10.10742188c-11.16210938 0-20.21484375-8.87695313-20.21484375-19.86328125v-13.359375c-8.0859375-2.19726563-15.73242188-5.36132813-22.8515625-9.40429687l-11.6015625 11.42578125c-7.82226563 7.734375-20.65429689 7.734375-28.4765625 0l-7.20703125-7.03125c-7.82226563-7.82226563-7.82226563-20.390625 0-28.125l11.86523438-11.68945314c-3.8671875-6.76757813-6.76757813-13.97460938-8.87695313-21.70898436h-13.18359375c-11.16210938 0-20.21484375-8.87695313-20.21484375-19.86328125v-9.93164063c0-10.98632813 9.05273438-19.86328125 20.21484375-19.86328125h13.359375c2.19726563-7.734375 5.2734375-15.02929689 9.22851563-21.88476563l-12.3046875-12.12890624c-7.82226563-7.734375-7.82226563-20.30273438 0-28.125l7.20703126-6.94335938c7.91015625-7.82226563 20.65429689-7.82226563 28.47656249 0l12.39257812 12.12890625c6.85546875-3.8671875 14.23828125-6.85546875 22.06054688-8.87695312v-12.74414063c0-10.98632813 9.05273438-19.86328125 20.21484375-19.86328125h10.10742188c11.16210938 0 20.21484375 8.87695313 20.21484374 19.86328125v12.74414063c7.734375 2.109375 15.20507813 5.09765625 22.06054688 8.87695312l12.3046875-12.12890625c7.91015625-7.82226563 20.65429689-7.82226563 28.56445312 0l7.11914063 6.94335938c7.91015625 7.82226563 7.91015625 20.390625 0 28.125l-12.3046875 12.12890624c3.95507813 6.76757813 7.03125001 14.0625 9.22851563 21.88476563h13.35937499c11.16210938 0 20.21484375 8.87695313 20.21484375 19.86328125v9.93164063c-0.08789063 10.98632813-9.05273438 19.86328125-20.21484375 19.86328125z m-105.64453126-79.80468749c-30.67382813 0-55.546875 24.43359375-55.546875 54.66796875s24.78515625 54.66796875 55.546875 54.66796875c30.5859375 0 55.45898438-24.43359375 55.45898438-54.66796875s-24.78515625-54.66796875-55.45898438-54.66796875z m0 80.15625c-13.97460938 0-25.22460938-11.16210938-25.22460937-24.78515625 0-13.7109375 11.25-24.78515625 25.22460937-24.78515625 13.88671875 0 25.22460938 11.07421875 25.22460938 24.78515625 0 13.62304688-11.33789063 24.78515625-25.22460938 24.78515625z m0 0"  horiz-adv-x="1024" />

    
    <glyph glyph-name="zidianshujuguanli" unicode="&#58959;" d="M313.85058594 185.45507812000005h372.56835937c61.69921875 0 112.32421875 50.625 112.32421875 112.32421876V647.40820313c0 45.48339844-37.17773438 82.66113281-82.66113281 82.66113281h-407.37304688c-45.48339844 0-82.66113281-37.17773438-82.66113281-82.66113282v-526.42089843c0-45.48339844 37.17773438-82.66113281 82.66113282-82.66113282h407.37304687c32.43164063 0 60.90820313 18.984375 74.35546875 46.27441407H313.85058594c-17.00683594 0-30.84960938 13.84277344-30.84960938 30.84960937V154.60546875c0 17.00683594 13.84277344 30.84960938 30.84960938 30.84960938z m38.36425781 345.27832032h68.42285156v-223.85742188H352.21484375V530.73339844z m127.74902344 96.10839844h64.07226562v-319.5703125H479.96386719V626.84179688z m127.74902343-182.72460938h64.07226563v-136.84570312h-64.07226563V444.1171875z"  horiz-adv-x="1024" />

    
    <glyph glyph-name="zidianleixing" unicode="&#58956;" d="M359.91874886 166.7410698h304.16250228a146.43251897 146.43251897 0 0 1 130.35535813 130.35535811V644.71071625a90.81423283 90.81423283 0 0 1-86.90357208 86.90357208H306.03853417A81.68935776 81.68935776 0 0 1 229.56339073 644.71071625v-521.42143248a89.9451971 89.9451971 0 0 1 86.90357208-86.9035721h391.06607438a83.42742921 83.42742921 0 0 1 74.30255412 46.49341106L359.91874886 79.83749770999998a56.48732185 56.48732185 0 0 0-43.45178605 43.45178604 56.92183972 56.92183972 0 0 0 43.45178605 43.45178605z m0 434.5178604h260.71071625v-43.45178603h-260.71071625z m0-130.35535811h217.2589302v-43.45178605h-217.2589302z m0-130.35535812h130.35535812v-43.45178606h-130.35535812z"  horiz-adv-x="1024" />

    
    <glyph glyph-name="zidianshuju" unicode="&#58887;" d="M735.5346844 709.88839531v-434.55132975H302.39281941a55.77452394 55.77452394 0 0 1-21.57823035-4.26195188 67.11735724 67.11735724 0 0 1-43.62628232-58.66057057V169.96281477000002a67.11735724 67.11735724 0 0 1 63.19099212-67.11735724H789.56415682V634.31425076a21.07484991 21.07484991 0 0 0 18.62506663 20.90705685h2.44978391a21.07484991 21.07484991 0 0 0 20.90705684-18.59150778v-578.51806084H301.82232185A109.23349882 109.23349882 0 0 0 192.42102934 166.74118138999995V600.41998569A109.23349882 109.23349882 0 0 0 301.4867351 709.82127821h434.0479493z m-197.99620353-262.73089523a7.88628976 7.88628976 0 0 1-9.6648995-1.10743623l-33.18953332-33.18953332-1.10743624-1.40946412a7.88628976 7.88628976 0 0 1 1.10743624-9.66489952l78.19172088-78.52730827 2.38266616-2.18131425a31.14245391 31.14245391 0 0 1 41.91478965 2.14775602 31.67939259 31.67939259 0 0 1 0 44.46524888l-78.3259557 78.35951458z m21.44399553 185.176789c7.28223335 9.06084308 0.83896721 18.96065339-15.36987504 16.41019352a85.74242388 85.74242388 0 0 1-70.7081356-102.75667382L329.03841 401.41702127l-2.61757696-2.85248776a46.98214987 46.98214987 0 0 1 68.89596763-63.76148904l144.06740704 144.30231786 4.86600831-0.90608432a85.91021757 85.91021757 0 0 1 97.75643133 71.91624846c2.48334214 17.14848477-8.75881521 23.49107495-18.22236277 13.92685139l-17.14848478-17.14848478-2.8189289-2.65113519a46.98214987 46.98214987 0 0 0-63.59369597 2.65113519 47.4184126 47.4184126 0 0 0 0 66.58041858l17.14848478 17.14848476z m-208.06380751-253.06599571a15.73902002 15.73902002 0 0 0 22.1487279 0 15.43699212 15.43699212 0 0 0 0-22.14872792 15.67190292 15.67190292 0 1 0-22.1487279 22.14872792z m-22.04805194 255.28086818l-22.14872791-22.14872791 27.68590972-38.92806705 23.22260591-12.11468279L411.89478791 506.89194802l22.1487279 22.14872791-54.29794209 54.43217692-12.04756569 23.18904706-38.72671512 27.85370341zM719.19160797 206.40753971000004H317.35998995a22.3836387 22.3836387 0 1 1 0-44.73371854h401.86517689a22.3836387 22.3836387 0 0 1 0 44.73371854z"  horiz-adv-x="1024" />

    
    <glyph glyph-name="zuzhijigou" unicode="&#58922;" d="M831.10373435 263.69582543h-23.74631429v122.3934909c0 11.83945857-11.8619245 23.67891713-23.72384836 23.6789165h-221.60231198V508.48280723h23.74631431c27.70028891 0 51.4466032 23.70138243 51.44660321 51.33427421V658.53165518C637.22417724 686.16454694 613.47786293 709.86592938 585.77757403 709.86592938h-98.93923117c-27.70028891 0-51.4466032-23.70138243-51.44660321-51.3342742v-98.71457374c0-27.63289175 23.7463143-51.33427419 51.44660321-51.3342742h23.74631365v-98.71457441H285.02837056c-11.8619245 0-23.72384837-11.83945857-23.72384836-23.67891651v-126.34746551H237.5582079c-27.70028891 0-51.4466032-23.70138243-51.44660321-51.3342742v-98.71457439C186.11160469 82.06011108999996 209.85791899 58.35872802999995 237.5582079 58.35872802999995h98.91676587c27.70028891 0 51.4466032 23.70138243 51.44660322 51.33427419v98.71457439c0 27.63289175-23.7463143 51.33427419-51.44660322 51.3342742H308.77468485v98.71457376h197.85599705v-98.71457376h-19.76987375c-27.72275484 0-51.4466032-23.70138243-51.44660322-51.3342742v-98.71457439c0-27.63289175 23.72384837-51.33427419 51.44660322-51.33427419h98.91676588c27.70028891 0 51.4466032 23.70138243 51.44660321 51.33427419v98.71457439c0 27.63289175-23.7463143 51.33427419-51.44660321 51.3342742h-23.7463143v98.71457376h197.85599768v-98.71457376h-27.70028891c-27.70028891 0-51.4466032-23.70138243-51.44660322-51.3342742v-98.71457439c0-27.63289175 23.7463143-51.33427419 51.44660322-51.33427419h98.91676585c27.70028891 0 51.4466032 23.70138243 51.4466032 51.33427419v98.71457439c0 31.58686639-23.7463143 55.26578353-51.4466032 55.26578289z"  horiz-adv-x="1094" />

    
    <glyph glyph-name="yewutongji" unicode="&#59028;" d="M248.32812525 153.28710911999997h560.30273412a32.95898463 32.95898463 0 0 0 0-65.91796849H215.36914062a32.95898463 32.95898463 0 0 0-32.95898462 32.95898462V647.67187475a32.95898463 32.95898463 0 1 0 65.91796925 0v-494.38476563z m82.39746043 230.71289088h32.95898463A49.43847656 49.43847656 0 0 0 413.12304687 334.56152344v-98.87695313A49.43847656 49.43847656 0 0 0 363.68457031 186.24609375h-32.95898463A49.43847656 49.43847656 0 0 0 281.28710912 235.68457031000003v98.87695313A49.43847656 49.43847656 0 0 0 330.72558568 384z m197.75390625 230.71289088h32.95898463A49.43847656 49.43847656 0 0 0 610.87695313 565.27441432v-329.58984401a49.43847656 49.43847656 0 0 0-49.43847657-49.43847656h-32.95898463a49.43847656 49.43847656 0 0 0-49.43847656 49.43847656v329.58984401A49.43847656 49.43847656 0 0 0 528.47949193 614.71289088z m197.75390625-131.83593776h32.95898463a49.43847656 49.43847656 0 0 0 49.43847656-49.43847656v-197.75390625a49.43847656 49.43847656 0 0 0-49.43847656-49.43847656h-32.95898463a49.43847656 49.43847656 0 0 0-49.43847656 49.43847656v197.75390625A49.43847656 49.43847656 0 0 0 726.23339818 482.87695313z"  horiz-adv-x="1024" />

    
    <glyph glyph-name="dangantongji" unicode="&#58892;" d="M416.7102332 272.41581345h-13.81766795v-20.16162873a25.46274663 25.46274663 0 0 0 13.81766796 20.16162873zM402.89256525 72.14653157999999v-22.94254302H251.98451232V543.03353692s69.0883398-24.20264483 157.51272441-37.97686101a111.23657227 111.23657227 0 0 1 110.28063296-98.72245789 111.23657227 111.23657227 0 0 1 110.28063299 98.37484361 971.58193588 971.58193588 0 0 1 95.42012214 19.94436979L432.43977975 317.0407977H341.23448086v-44.62498425h61.6580844v-20.16162873c-0.13035536-0.95593929-0.82558394-1.73807144-0.82558394-2.73746252v-20.29198408h-60.83250046v-46.0588932h60.83250046v-43.19107534h-60.83250046v-46.10234497h60.83250046v-17.59797336c0-1.47736073 0.608325-2.7809143 0.82558394-4.12791966zM456.99003887 513.70358134a62.78783083 62.78783083 0 1 0 125.57566166 0.04345178 62.78783083 62.78783083 0 0 0-125.57566166-0.04345179zM787.65813064 718.79601145v-132.52794743s-70.91331482-24.41990376-161.07577086-37.6726985A111.23657227 111.23657227 0 0 1 519.7778697 629.5025911299999a111.23657227 111.23657227 0 0 1-106.71758652-80.68996668 1022.46397734 1022.46397734 0 0 0-161.07577086 37.45543957V718.79601145h535.67361832zM475.02253007 51.984902850000026h-32.41503238a24.55025912 24.55025912 0 0 0-24.50680733 24.50680733V241.47814178c0 13.55695725 10.99330188 24.50680733 24.50680733 24.50680734h32.45848418c13.55695725 0 24.50680733-10.99330188 24.50680732-24.50680734v-164.9864316a24.55025912 24.55025912 0 0 0-24.55025912-24.50680732zM618.89139366 51.984902850000026h-32.41503238a24.50680733 24.50680733 0 0 0-24.50680733 24.50680733V345.3713622c0 13.55695725 10.99330188 24.50680733 24.50680733 24.50680733h32.41503238c13.55695725 0 24.50680733-10.99330188 24.50680733-24.50680733v-268.87965202a24.55025912 24.55025912 0 0 0-24.50680733-24.50680733zM762.76025725 51.984902850000026h-32.45848418a24.50680733 24.50680733 0 0 0-24.46335555 24.50680733V448.52590227c0 13.55695725 10.99330188 24.50680733 24.46335555 24.50680733h32.45848418c13.55695725 0 24.50680733-10.99330188 24.50680732-24.50680734v-372.03419208a24.46335555 24.46335555 0 0 0-24.50680732-24.50680733z"  horiz-adv-x="1024" />

    
    <glyph glyph-name="chaxuntongji" unicode="&#58989;" d="M189.04631185 97.86498517999996h645.48813243c12.0622158 0 21.84176468-9.77954887 21.841764-21.84176401v-14.55766545c0-12.0622158-9.77954887-21.84176468-21.841764-21.841764H189.04631185c-12.0622158 0-21.84176468 9.77954887-21.841764 21.841764v14.55766545c0 12.06326951 9.77954887 21.84176468 21.841764 21.841764zM790.44220539 290.43171422l-108.65579961 104.9278991c20.99590302 31.15256043 32.02370288 67.29075232 32.02370289 105.32818307 0 104.257952-84.81894006 189.07689206-189.07689205 189.07689207-104.25689897 0-189.07583835-84.81894006-189.07583836-189.07689207 0-104.25689897 84.81894006-189.07583835 189.07583836-189.07583836 32.29336738 0 63.75456721 8.16261558 91.72382332 23.70518775l112.45954315-108.60102389c7.17138801-6.92384453 16.44004911-10.3662797 25.69922958-10.36627969 9.69422519 0.0010537 19.37896973 3.77635535 26.62620078 11.28377028l10.11030929 10.46951027c6.86801578 7.11134577 10.555887 16.46954336 10.38313287 26.35443022-0.1706467 9.88277946-4.18190513 19.1071985-11.29325022 25.97416125zM634.94379988 500.68779639c0-60.7703515-49.44023243-110.21058327-110.21058326-110.21058326s-110.21058327 49.44023243-110.21058327 110.21058326 49.44023243 110.21058327 110.21058327 110.21058327 110.21058327-49.44023243 110.21058326-110.21058327zM790.44115167 290.43276725l0.00105372-0.00105303v-0.0010537zM825.6355185 728.79545215H709.15734371c-16.97516464 0-30.73542329-13.76025864-30.73542329-30.73542328v-28.41062102c45.94196853-41.82642582 74.82134198-102.08378282 74.82134197-168.96161146 0-34.34007822-7.56745782-67.7437046-22.08404097-98.18839605l86.67498989-83.7023602-0.0010537 0.00105304 0.0010537-0.00105304 0.00105303-0.0010537-0.00105303 0.0010537c14.68933727-14.18371667 22.97519773-33.23929987 23.33018524-53.65584595 0.35393449-20.41549239-7.26092516-39.74706029-21.44780159-54.43429083l-10.10714886-10.46740353c-14.30801458-14.81890235-34.35061189-23.32281202-54.98836695-23.32491876-19.92356589 0-38.77795373 7.61064618-53.09228852 21.43094773l-23.10687021 22.31367755v-67.79216013c0-16.97516464 13.76025864-30.73542329 30.73542329-30.73542329h116.47817479c16.97516464 0 30.74069046 13.76025864 30.74068978 30.73542329V698.06002887c0 16.97516464-13.76552582 30.73542329-30.74068978 30.73542328zM422.81270727 296.20948463V152.86809925c0-16.97516464 13.76025864-30.73542329 30.7354233-30.73542328h116.47817478c16.97937812 0 30.74069046 13.76025864 30.7406898 30.73542328V285.19537886c-24.31930609-8.56079212-50.0754181-13.01657522-76.03483157-13.01657522-36.60378457 0-71.21774075 8.66507642-101.91945631 24.03068099zM197.93997113 435.17198367c-16.97516464 0-30.73542329-13.76552582-30.73542328-30.74069045V152.86809925c0-16.97516464 13.76025864-30.73542329 30.73542328-30.73542328h116.48344129c16.97516464 0 30.73542329 13.76025864 30.73542328 30.73542328V359.52690039000004c-17.53661399 22.25995484-31.01562145 47.85068665-39.3488844 75.64613632H197.93997113zM790.44115167 290.43276725l0.00105372-0.00105303v-0.0010537z"  horiz-adv-x="1024" />

    
    <glyph glyph-name="caozuorizhi" unicode="&#58998;" d="M683.93866772 58.11166962000004a19.55330181 19.55330181 0 0 0-17.59797144 10.94984944L594.0586572 215.84163766999995l-70.6525971-63.41787536a19.55330181 19.55330181 0 0 0-32.58883634 15.90335177l22.61665271 342.44349143a19.55330181 19.55330181 0 0 0 30.37279527 14.99086491l285.41302797-190.8402252A19.55330181 19.55330181 0 0 0 821.91980029 299.2690586l-93.33442687-17.20690602 72.28203844-146.78011859a19.55330181 19.55330181 0 0 0-8.92934075-26.07106907L692.54212008 60.13217767000003a19.55330181 19.55330181 0 0 0-8.60345236-2.02050805zM600.25053607 267.13646600000004a23.85502798 23.85502798 0 0 0 3.71512708 0 19.55330181 19.55330181 0 0 0 13.81766669-10.55878337L692.8028308 103.73604049999994l64.33036287 31.67634885-75.01950097 152.51575372a19.55330181 19.55330181 0 0 0 0 17.33726135 19.55330181 19.55330181 0 0 0 13.94802205 10.49360507l71.69543997 13.03553452-217.49789339 145.6069204-17.206906-260.71069015 54.09746853 48.49218812a19.55330181 19.55330181 0 0 0 13.10071221 4.95350361zM447.93031538 123.28934231000005H277.36034646a58.65990542 58.65990542 0 0 0-58.65990542 58.65990543V300.37707849000003a19.55330181 19.55330181 0 0 0 39.10660361 0V181.94924774000003a19.55330181 19.55330181 0 0 1 19.55330181-19.55330181h170.56996892a19.55330181 19.55330181 0 0 0 0-39.10660362zM720.56851953 500.21182278a19.55330181 19.55330181 0 0 0-19.55330181 19.55330179V651.22848988a19.55330181 19.55330181 0 0 1-19.5533018 19.55330182H277.36034646a19.55330181 19.55330181 0 0 1-19.55330181-19.55330182v-115.88590191a19.55330181 19.55330181 0 0 0-39.10660361 0V651.22848988a58.65990542 58.65990542 0 0 0 58.65990542 58.65990543h404.10156946a58.65990542 58.65990542 0 0 0 58.65990543-58.65990543v-131.46336531a19.55330181 19.55330181 0 0 0-19.55330182-19.55330178zM186.11160469 537.16756298m19.55330181-1e-8l65.1776727 0q19.55330181 0 19.5533018-19.55330179l0-1e-8q0-19.55330181-19.5533018-19.5533018l-65.1776727 0q-19.55330181 0-19.55330181 19.5533018l0 1e-8q0 19.55330181 19.55330181 19.55330179ZM186.11160469 439.40105392m19.55330181 0l65.1776727 0q19.55330181 0 19.5533018-19.55330116l0 0q0-19.55330181-19.5533018-19.5533018l-65.1776727 0q-19.55330181 0-19.55330181 19.5533018l0 0q0 19.55330181 19.55330181 19.55330116ZM186.11160469 341.63454551999996m19.55330181 0l65.1776727 0q19.55330181 0 19.5533018-19.55330179l0 0q0-19.55330181-19.5533018-19.55330182l-65.1776727 0q-19.55330181 0-19.55330181 19.55330182l0 0q0 19.55330181 19.55330181 19.55330179Z"  horiz-adv-x="1024" />

    
    <glyph glyph-name="training" unicode="&#59248;" d="M874.666667 725.333333v-64h-42.666667v-426.666666c0-35.349333-30.72-64-68.565333-64h-149.354667l113.749333-128h-85.632l-113.770666 128h-11.562667l-113.749333-128h-85.610667l113.728 128h-170.666667C222.72 170.66666699999996 192 199.31733299999996 192 234.66666699999996V661.333333H149.333333V725.333333h725.333334z m-106.666667-64H256v-426.666666h512V661.333333zM405.333333 426.666667v-64h-64v64h64z m277.333334 0v-64H448v64h234.666667z m0 106.666666v-64H448v64h234.666667z m-277.333334 0v-64h-64v64h64z"  horiz-adv-x="1024" />

    
    <glyph glyph-name="danganjieyue" unicode="&#58952;" d="M859.61428833 659.4843235c0 29.11269665-23.89848233 53.01117897-53.01117896 53.01117897h-443.20821762c-29.11269665 0-54.31473255-24.76751804-54.31473256-53.88021469v-531.84986113c0-29.11269665-23.89848233-53.01117897-53.01117897-53.01117898-29.11269665 0-53.01117897 23.89848233-53.01117898 53.01117898v0.8690357h0.86903573V447.00508976c0 9.99391079 6.95228576 16.94619655 16.5116787 16.94619657h54.31473255v35.63046454H220.87303351c-29.54721451-0.43451786-53.01117897-24.33300019-53.01117896-53.44569683v-318.93610954c0-48.66600037 39.5411253-88.64164353 88.64164353-88.64164353 39.10660745 0 72.12996483 25.2020359 83.86194706 60.3979826l476.23157501 2.1725893c-8.69035719-15.64264297-25.63655377-26.07107163-45.62437535-26.07107163H381.21012402c-9.99391079 0-17.81523228-7.82132149-17.81523228-17.81523227s7.82132149-17.81523228 17.81523228-17.81523227l388.89348507-1.30355359c48.66600037 0 88.64164353 39.5411253 88.64164352 88.64164352v0.86903572h0.86903572V659.4843235z m-424.95846748-64.30864335h116.01626873c9.55939293 0 17.81523228-7.82132149 17.81523227-17.81523227s-7.82132149-17.81523228-17.81523227-17.81523227H434.65582085c-9.99391079 0-17.81523228 7.82132149-17.81523228 17.81523227s7.82132149 17.81523228 17.81523228 17.81523227zM735.77669812 187.5979271H434.65582085c-9.99391079 0-17.81523228 7.82132149-17.81523228 17.81523228s7.82132149 17.81523228 17.81523228 17.81523226H735.77669812c9.55939293 0 17.81523228-7.82132149 17.81523227-17.81523226s-7.82132149-17.81523228-17.81523227-17.81523228z m0 123.83759021H434.65582085c-9.99391079 0-17.81523228 7.82132149-17.81523228 17.81523228s7.82132149 17.81523228 17.81523228 17.81523228H735.77669812c9.55939293 0 17.81523228-7.82132149 17.81523227-17.81523228 0-9.55939293-7.82132149-17.81523228-17.81523227-17.81523228z m0 124.27210808H434.65582085c-9.99391079 0-17.81523228 7.82132149-17.81523228 17.81523227 0 9.55939293 7.82132149 17.81523228 17.81523228 17.81523228H735.77669812c9.55939293 0 17.81523228-7.82132149 17.81523227-17.81523228s-7.82132149-17.81523228-17.81523227-17.81523227z m-6.95228577 89.9451971s-63.87412549 0-106.4568758 65.17767907c0 0 116.01626873 137.74216175 220.73507309 0 0 0-24.33300019-65.17767906-114.27819729-65.17767907z m3.91066074 102.1116972c-22.16041088 0-39.97564316-17.38071443-39.97564316-39.10660744s17.81523228-39.10660745 39.97564316-39.10660743 39.97564316 17.38071443 39.97564316 39.10660743-17.81523228 39.10660745-39.97564316 39.10660744z m5.64873219-63.87412548c-8.69035719 0-16.07716084 6.95228576-16.07716084 15.64264298v0.43451786c0 8.69035719 7.38680363 15.64264297 16.5116787 15.64264298s16.07716084-7.38680363 16.07716083-16.07716084c0-9.12487507-7.38680363-16.07716084-16.51167869-15.64264298z"  horiz-adv-x="1024" />

    
    <glyph glyph-name="danganjieyue1" unicode="&#58899;" d="M463.51939393 491.28149437a49.34577966 49.34577966 0 1 1 98.72245787 0c0 27.25296021-22.06192016 49.40757752-49.40757751 49.40757752a49.50027466 49.50027466 0 0 1-49.31488037-49.40757752zM724.80174232 294.26916502999995a130.91926598 130.91926598 0 1 1-0.03089858-261.86943053 130.91926598 130.91926598 0 0 1 0.03089858 261.86943053z m69.05937195-149.2733004H721.49554443a16.37649513 16.37649513 0 0 0-16.37649512 16.37649584v72.67456054a16.37649513 16.37649513 0 1 0 32.75299025 0v-55.98907471h56.29806542a16.37649513 16.37649513 0 1 0 0-32.75299096l-0.30899071-0.30899071zM564.55928039 162.14483617999997c0 26.66587806 7.19947792 51.44691467 18.78662086 73.53973413H340.69567871v27.40745521h244.56596399v-23.88496375a159.06829834 159.06829834 0 0 0 75.33187842 68.90487695H340.69567871v28.55072021h344.43168616v-20.67146302c12.39051795 3.08990502 25.15182518 5.22193932 38.50021386 5.22193862 20.91865516 0 40.78674317-4.29496789 59.07897973-11.61804152V556.01499915a556.58454919 556.58454919 0 0 0-183.16955566-66.92733764c-1.05056786-47.21374536-39.51988244-84.44709778-86.64093065-84.44709778s-85.59036278 38.37661743-86.64092994 85.59036278c-78.97796631 12.08152794-143.64967323 40.57044959-185.33248925 63.59024048v-472.75543212c0-10.93826294 8.77532935-20.8568573 20.8568573-20.85685731h340.66200256c-23.29788232 27.68554664-37.88223243 62.94136047-37.88223243 101.93595862z m-29.72488379 1.1741643H340.69567871v28.55072022h194.10781861v-28.55072022h0.03089928zM762.09689331 704.14503456H262.58288598a20.79505944 20.79505944 0 0 1-20.82595873-20.82595802v-94.21119714C279.02117896 567.2313535200001 346.90638732 533.21150183 432.37315369 519.02883888c13.1320951 31.76422095 43.81484962 53.70254541 79.9667356 53.70254539s66.8346405-21.87652588 79.96673631-53.70254539a511.68823242 511.68823242 0 0 1 189.50386 73.38523911V683.31907654c1.11236573 11.03096008-8.68263221 20.82595802-19.71359229 20.82595802z"  horiz-adv-x="1024" />

    
    <glyph glyph-name="danganzhuanchu" unicode="&#58885;" d="M359.81011939 543.83590134c-4.23654913-4.23654913-4.23654913-17.27208495 0-21.83452248 4.23654913-4.23654913 8.79898668-4.23654913 13.03553581-4.23654915h73.65077734v-216.06400609c0-8.79898668 4.23654913-13.03553581 13.03553582-13.03553581h104.28428649c4.23654913 0 13.03553581 4.23654913 13.03553582 13.03553581V522.32726726h78.21321486c8.79898668 0 13.03553581 8.79898668 13.03553582 17.27208494-0.32588839 3.25888396-1.95533037 6.5177679-4.23654914 8.79898667L525.03553581 687.22679528c-4.23654913 4.23654913-17.27208495 4.23654913-21.83452249 0l-143.39089393-143.39089394zM837.23661852 335.59321673c0 4.23654913 0 8.79898668-4.23654915 17.27208496l-82.449764 138.8284564c-4.23654913 13.03553581-21.83452249 17.27208495-34.87005831 8.79898667-13.03553581-8.79898668-17.27208495-21.83452249-8.79898666-34.8700583l65.17767905-108.52083563h-108.52083563c-13.03553581 0-21.83452249-8.79898668-26.07107163-21.83452249-4.23654913-30.30762076-21.83452249-60.61524153-43.34315657-78.21321488-21.83452249-17.27208495-52.14214326-30.30762076-82.44976401-30.30762076s-60.94112992 13.03553581-82.44976402 30.30762076c-21.83452249 21.83452249-39.10660744 47.90559411-43.34315657 78.21321488 0 13.03553581-13.03553581 21.83452249-26.07107163 21.83452249H251.28928375l65.17767906 108.52083563c8.79898668 13.03553581 4.23654913 26.07107163-8.79898668 34.8700583-13.03553581 8.79898668-30.30762076 4.23654913-34.87005828-8.79898667l-82.44976403-143.39089394c-4.23654913-4.23654913-4.23654913-8.79898668-4.23654913-13.03553581V105.51600965c0-13.03553581 13.03553581-26.07107163 26.07107163-26.07107163h598.98287058c13.03553581 0 26.07107163 13.03553581 26.07107162 26.07107163v230.07720709c0-4.56243754 0 0 0-1e-8z"  horiz-adv-x="1024" />

    
    <glyph glyph-name="danganjieshou" unicode="&#58884;" d="M502.95659702 289.46118534000004c4.31802124-4.3587573 17.35355706-4.3587573 21.71231436 1e-8l138.90992848 138.90992849a13.36142421 13.36142421 0 0 1 4.35875729 8.67677853c0 8.67677853-4.3587573 17.35355706-13.03553581 17.35355705H576.77031856V674.78347674c0 8.67677853-8.67677853 13.03553581-13.03553581 13.03553582H459.5727044c-8.67677853 0-13.03553581-4.3587573-13.0355358-13.03553582v-216.02327004H372.76418311c-4.3587573 0-8.67677853 0-13.03553582-4.35875728-4.3587573-4.3587573-4.3587573-17.35355706 0-21.71231434l143.22794973-143.22794974zM837.19588247 332.88581402c0 4.31802124 0 8.67677853-4.35875729 17.35355705l-82.44976401 138.90992849c-4.3587573 12.99479977-21.71231434 17.35355706-34.70711411 8.67677853-13.03553581-8.67677853-17.35355706-21.71231434-8.67677853-34.70711409L772.09967551 354.59812836000003H663.57883987c-13.03553581 0-21.71231434-8.67677853-26.03033558-21.71231434-4.3587573-30.38909287-21.71231434-60.77818572-43.42462867-78.13174277-21.71231434-17.35355706-52.1014072-30.38909287-82.49050007-30.38909287s-60.77818572 13.03553581-82.49050006 30.38909287c-21.71231434 21.71231434-39.06587139 47.74264991-43.42462867 78.13174278 0 13.03553581-13.03553581 21.71231434-26.03033558 21.71231433H251.20781165l65.09620697 108.52083564c8.67677853 13.03553581 4.31802124 26.03033557-8.67677853 34.70711409-13.03553581 8.67677853-30.38909287 4.3587573-34.70711409-8.67677853L190.47036197 345.88061378C186.11160469 341.56259255 186.11160469 337.20383525 186.11160469 332.88581402V102.84934297999996c0-13.03553581 13.03553581-26.07107163 26.03033558-26.07107163h598.98287057c13.03553581 0 26.03033557 13.03553581 26.03033558 26.03033558V332.88581402c0.04073605-4.3587573 0.04073605 0 0.04073605 1e-8z"  horiz-adv-x="1024" />

    
    <glyph glyph-name="mb-danganchakan" unicode="&#59540;" d="M711.68200684 254.32287597000004a87.85217286 87.85217286 0 0 0 68.52172851-142.87719725c0.29663086-0.14831543 8.15734864-7.91015625 12.60681152-12.35961915l3.06518555-3.01574707 0.8404541 0.8404541a7.26745606 7.26745606 0 0 0 10.28320312 0l30.89904786-30.89904785a7.26745606 7.26745606 0 0 0 0-10.33264161l-15.47424317-15.42480467a7.26745606 7.26745606 0 0 0-10.28320312-1e-8l-30.89904785 30.89904785a7.26745606 7.26745606 0 0 0 0 10.28320314l0.8404541 0.84045409s-15.17761231 15.27648926-15.42480469 15.67199707a87.85217286 87.85217286 0 1 0-54.97558594 156.42333984zM657.05249023 730.06933594c8.20678711-1.38427734 19.92370606-8.15734864 19.67651368-28.08105469-0.24719239-19.92370606-11.46972656-25.21362305-19.6270752-26.64733887H290.81225586c-23.23608398-0.29663086-59.82055664-12.85400391-60.95764161-52.89916991-0.98876953-38.41369629 21.55517578-59.86999511 63.28125001-61.05651856h447.12158202v16.61132812c0 18.39111328-14.83154297 12.31018067-33.12377928 12.31018067H296.94262695c-7.91015625 0.19775391-22.24731445 7.31689453-22.9888916 27.09228515a26.9934082 26.9934082 0 0 0 23.92822266 27.58666993h409.30114746a67.28576661 67.28576661 0 0 0 66.59362793-66.98913575v-296.97692871a129.7265625 129.7265625 0 0 1-134.27490235-221.92932129H257.78735353a66.84082031 66.84082031 0 0 0-66.64306642 66.98913575V628.37438965a101.05224609 101.05224609 0 0 0 28.87207031 71.68579101A99.86572266 99.86572266 0 0 0 290.81225586 730.06933594h366.24023437z m53.69018555-523.80065919a38.90808106 38.90808106 0 1 1 0-77.81616212 38.90808106 38.90808106 0 0 1 0 77.81616212z m-216.93603515 236.81030274A161.21887209 161.21887209 0 0 1 343.90917969 340.84020996000004a161.21887209 161.21887209 0 0 1 149.94689942-102.23876953 161.16943359 161.16943359 0 0 1 149.99633788 102.23876954 161.16943359 161.16943359 0 0 1-149.99633788 102.23876953z m0-34.11254883a68.17565918 68.17565918 0 1 0 0-136.30187988 68.17565918 68.17565918 0 0 0 0 136.35131836z m0-27.19116211a40.93505859 40.93505859 0 1 1 0.09887695-81.91955566 40.93505859 40.93505859 0 0 1-0.09887695 81.87011719z"  horiz-adv-x="1024" />

    
    <glyph glyph-name="PDF" unicode="&#58883;" d="M526.76575113 709.88839531h44.26132804v-60.64376694c79.03808487-0.43111662 158.07617037 0.86223385 237.54537185-0.43111725a25.86700948 25.86700948 0 0 0 28.7411217-28.74112171c1.2214978-149.3101277 0-298.6921087 0.7185279-448.00223642-0.7185279-15.3046477 1.43705581-32.26190917-7.18528025-45.84208979-10.8497737-7.90380879-24.78921763-7.18528028-37.43531108-7.18528027H571.1707845v-60.64376696h-46.41691173C412.01682227 79.16447621999998 299.0642138 98.49288066999998 186.11160469 118.75537163000001V649.1009224C299.63903574 669.43526603 413.23832008 689.19478773 526.76575113 709.88839531zM571.02707917 626.53914177h244.29953551v-485.07828354h-244.29953551v60.64376694h192.49366326v30.32188347H571.02707917v37.86642834h192.49366326V300.32740915H571.02707917v38.22569166h192.49366326v30.3218841H571.02707917v37.8664277h192.49366326V436.84773809H571.02707917v38.08198631h192.49366326v30.32188348H571.02707917V543.18988887h192.49366326v-380.10133653H571.02707917zM596.96594131 372.75503633999995h192.4936639v-30.32188412H596.96594131zM596.96594131 320.66175279000004h192.4936639v-30.32188346H596.96594131zM596.96594131 268.56846925h192.4936639v-30.32188347H596.96594131zM565.70997131 216.47518635999995h223.7496339v-30.32188412H565.70997131zM301.07609218 507.91016149c37.72272236-1.79632039 83.34925354 15.3046477 114.96448747-13.58017997 29.89076687-37.21975309 21.98695805-105.55177021-22.34622263-127.7542869-15.73576432-8.26307276-33.84267095-7.18528028-50.9436384-6.53860503v-83.34925355L301.07609218 280.20862351999995c-0.57482258 75.87656198-0.7185279 151.82497598 0 227.70153798zM342.46330734 469.46891122c13.65203263 0.64667525 30.60929476 3.23337619 39.80645404-9.91568717a52.45254749 52.45254749 0 0 0 0.93408652-46.63247037c-7.90380879-14.37056118-25.79515682-13.22091603-39.66274807-14.87353045-1.43705581 23.78327844-1.29335047 47.56655688-1.07779249 71.42168799zM749.86870979 468.10370808a53.45848668 53.45848668 0 0 0-30.75300073 12.5023875 293.15944286 293.15944286 0 0 1-49.4347293-15.80761699c-12.93350474-22.92104457-24.93292295-34.63305152-35.35158003-34.6330515a11.06533169 11.06533169 0 0 0-6.25119374 1.65261444 12.35868218 12.35868218 0 0 0-7.18528092 11.28089031c0 3.7363461 0.86223385 14.37056118 40.30942396 31.25597a297.82987486 297.82987486 0 0 1 22.05881071 51.73401958c-5.02969657 9.98753983-15.80761697 34.56119885-8.33492541 47.06358697a13.14906335 13.14906335 0 0 0 12.86165207 6.68231036 13.93944392 13.93944392 0 0 0 10.84977371-5.38895987c5.38896052-7.18528028 4.95784328-23.35216119-2.08373167-46.70432304A125.38314394 125.38314394 0 0 1 722.49279122 494.32998152a140.75964429 140.75964429 0 0 0 26.15442076 2.87411223c19.54396307-0.43111662 22.48992797-9.55642323 22.05881071-15.01723642 0-14.37056118-13.72388594-14.37056118-20.76546023-14.37056053z m-117.76674706-26.80109663l1.43705642 0.35926394a28.7411217 28.7411217 0 0 1 15.23279442 10.70606838 35.92640261 35.92640261 0 0 1-16.66985084-11.06533232z m59.42226977 127.46687561h-1.36520376a2.80225957 2.80225957 0 0 1-1.79631975-0.43111662 33.41155432 33.41155432 0 0 1 2.6585536-21.55584143 33.9145236 33.9145236 0 0 1 0.50296991 21.98695805zM689.08123688 507.76645615v-0.79038119l-0.43111661 0.43111726c-3.44893481-9.12530598-7.18528028-18.10690663-11.49644895-26.94480197l0.7185279 0.43111662V479.95942034A220.4444044 220.4444044 0 0 0 703.45179807 488.00693447l-0.43111726 0.35926395h1.14964515a124.95202733 124.95202733 0 0 0-15.08908908 19.40025774z m60.21265033-22.13066401a42.10574371 42.10574371 0 0 1-11.56830159-1.07779183 32.26190917 32.26190917 0 0 1 13.36462197-4.23931602 16.59799818 16.59799818 0 0 1 8.83789471 1.00593982c-0.28741128 1.65261443-2.08373103 4.31116804-10.92162637 4.31116803z"  horiz-adv-x="1024" />

    
    <glyph glyph-name="nav-list" unicode="&#59133;" d="M789.333333 320v-85.333333h85.333334v-64h-85.333334v-85.333334h-64v85.333334h-85.333333v64h85.333333v85.333333h64z m-533.333333-158.101333v-64H170.666667v64h85.333333z m341.333333 0v-64H298.666667v64h298.666666zM256 402.837333v-64H170.666667v64h85.333333z m426.666667 0v-64H298.666667v64h384zM256 643.776v-64H170.666667v64h85.333333z m597.333333 0v-64H298.666667v64h554.666666z"  horiz-adv-x="1024" />

    
    <glyph glyph-name="viewlist" unicode="&#59247;" d="M426.666667 362.666667a64 64 0 0 0 64-64v-192a64 64 0 0 0-64-64h-192a64 64 0 0 0-64 64v192a64 64 0 0 0 64 64h192z m416-202.666667v-64H533.333333v64h309.333334zM426.666667 298.666667h-192v-192h192v192z m416 0v-64H533.333333v64h309.333334zM426.666667 725.333333a64 64 0 0 0 64-64v-192a64 64 0 0 0-64-64h-192a64 64 0 0 0-64 64v192a64 64 0 0 0 64 64h192z m0-64h-192v-192h192v192z m416-128v-64H533.333333v64h309.333334z m0 138.666667v-64H533.333333v64h309.333334z"  horiz-adv-x="1024" />

    
    <glyph glyph-name="danganguanli" unicode="&#58882;" d="M328.67963043 696.85014375c19.19754221 0 34.76142883-15.56117088 34.76142883-34.76142883v-556.18082453a34.75124483 34.75124483 0 0 0-10.18401234-24.57877433 34.74581335 34.74581335 0 0 0-24.57741649-10.18061769H236.56252295A34.75735522 34.75735522 0 0 0 201.80041519 105.90856932999998V662.08803599c0 19.20093689 15.56117088 34.76210777 34.76210776 34.76210778h92.11710747m0 34.76210776H236.56252295C198.16404385 731.61225153 167.03830742 700.48719404 167.03830742 662.08803599v-556.18082452c0-38.39508443 31.12573642-69.52082086 69.52421553-69.52082086h92.11710748c38.39508443 0 69.52082086 31.12573642 69.52082086 69.52149979V662.08803599C398.20045129 700.48719404 367.07471487 731.61293047 328.67963043 731.61293047zM413.14718676 698.93515057v-643.08371768h173.80714417V698.9358295h-173.80714417z m86.90492994-585.7293969c-20.9281454 0-37.8913153 16.96452778-37.89131529 37.89267315 0 20.92475073 16.96316992 37.88859956 37.89131529 37.88859956 20.92542965 0 37.88859956-16.96316992 37.88859956-37.88859956 0-20.92746646-16.96316992-37.89267316-37.88859956-37.89267315z m37.88859956 344.13814544c0-19.19754221-15.56456555-34.7587131-34.76142883-34.7587131h-6.25637825c-19.19754221 0-34.76142883 15.56117088-34.76142883 34.7587131V581.0973014799999c0 19.19754221 15.56388662 34.7587131 34.76142883 34.7587131h6.25569932c19.19754221 0 34.76210777-15.56117088 34.76210776-34.7587131v-123.75340237z m0 0M545.9378817 696.85014375a34.75939203 34.75939203 0 0 0 24.57741648-10.18061767 34.75735522 34.75735522 0 0 0 10.18401236-24.58149009v-556.18082452a34.74785015 34.74785015 0 0 0-10.18401236-24.57741648 34.74581335 34.74581335 0 0 0-24.57741648-10.18129662H453.82077422a34.75735522 34.75735522 0 0 0-34.76142882 34.75939202V662.08803599c0 19.20093689 15.56117088 34.76210777 34.76142883 34.76210778h92.11710746m0 34.76210776H453.82077422a69.52761021 69.52761021 0 0 1-49.16298017-20.36123537 69.52761021 69.52761021 0 0 1-20.36123537-49.16298017v-556.18082452c0-38.39508443 31.12573642-69.52082086 69.52421555-69.52082086h92.11710746c38.39508443 0 69.52082086 31.12573642 69.52082088 69.52149979V662.08803599C615.45870257 700.48719404 584.33296615 731.61225153 545.9378817 731.61225153z m0 0M771.19194055 696.85014375a34.75939203 34.75939203 0 0 0 34.75939202-34.76142883v-556.18082453a34.74785015 34.74785015 0 0 0-10.18061769-24.57877433 34.74581335 34.74581335 0 0 0-24.57877433-10.18061769H679.07211733a34.74920802 34.74920802 0 0 0-24.57809542 10.18061769 34.74785015 34.74785015 0 0 0-10.18401234 24.57877433V662.08803599a34.75735522 34.75735522 0 0 0 10.18401234 24.58149009 34.75939203 34.75939203 0 0 0 24.57809542 10.18061769h92.11982321m0 34.76210776H679.07211733c-38.39508443 0-69.52082086-31.12505749-69.52082086-69.52421554v-556.18082452c0-38.39508443 31.12573642-69.52082086 69.52082085-69.52082086h92.11982323c38.39576337 0 69.5214998 31.12573642 69.52149978 69.52149979V662.08803599C840.71276141 700.48719404 809.58770391 731.61225153 771.19194055 731.61225153zM244.55561478 615.85601459h75.77991486v-193.26947072H244.55561478z m0-426.52205286h75.77991486v-75.77991486H244.55561478zM687.41621811 615.85601459h75.77991487v-193.26947072H687.41621811z m0-426.52205286h75.77991487v-75.77991486H687.41621811z"  horiz-adv-x="1026" />

    
    <glyph glyph-name="tuxiangchuli1" unicode="&#59016;" d="M424.47401788 709.86511911a13.59323078 13.59323078 0 1 0 0-27.13990918h-162.93255989v-162.93255923a13.59323078 13.59323078 0 1 0-27.13990917 0V696.27188831C234.40154881 703.81333852 240.45333005 709.86511911 247.99477962 709.86511911h176.47923826zM872.5385569 709.86511911a13.59323078 13.59323078 0 1 1 0-27.13990918h162.93255989v-162.93255923a13.59323078 13.59323078 0 1 1 27.18646092 0V696.27188831A13.59323078 13.59323078 0 0 1 1049.06434692 709.86511911h-176.52579002zM424.47401788 58.13488088999998a13.59323078 13.59323078 0 1 1 0 27.13990918h-162.93255989v162.93255923a13.59323078 13.59323078 0 1 1-27.13990917 0v-176.47923761c0-7.4948978 6.0517806-13.59323078 13.5932308-13.59323082h176.47923826zM872.5385569 58.13488088999998a13.59323078 13.59323078 0 1 0 0 27.13990918h162.93255989v162.93255923a13.59323078 13.59323078 0 1 0 27.18646092 0v-176.47923761c0-7.4948978-6.0517806-13.59323078-13.59323078-13.59323082h-176.52579003zM477.40382383 362.44635002999996l108.69929327-122.29252407-69.22306157-78.81280687-180.62238091-0.04655175v50.18322809L477.40382383 362.44635002999996z m311.94602348 71.22480428l171.45160459-189.46729048v-82.90939649H550.11829771l239.27810135 272.33013522z m171.45160459 177.31717754v-329.49618797l-171.73091768 189.65349943-186.34829603-212.09164043L477.86934522 399.54842113 336.21112286 248.06769339000004V610.98833185h624.59032904z m-287.27337843-37.47448896a74.94897732 74.94897732 0 1 1 0-149.89795463 74.94897732 74.94897732 0 0 1 0 149.89795463z m0-24.99850991a49.95046742 49.95046742 0 1 0 0-99.90093483 49.95046742 49.95046742 0 0 0 0 99.90093482z"  horiz-adv-x="1316" />

    
    <glyph glyph-name="danweizhigongxinxibiao" unicode="&#59242;" d="M252.44799805 239.54695130000005v-38.77830506c0-11.50989533 9.34696198-20.8568573 20.85685729-20.8568573h256.23035432c11.50989533 0 20.8568573 9.34696198 20.85685729 20.8568573V239.54695130000005c0 7.87925721-4.48036193 15.14053344-11.50989532 18.69392394L461.94354247 296.71018982l19.85263826 28.96785737c2.39467621 3.47614289 3.63063813 7.57026672 3.63063812 11.8188858v61.10286712c0 45.34435273-36.22913361 80.87825776-82.50045776 80.87825775S320.42590332 443.86690522 320.42590332 398.52255249v-61.10286712c0-4.3258667 1.39045716-8.57448578 3.86238098-12.12787629l20.23887635-28.50437164-80.2602768-38.46931458C257.08285523 254.91922761 252.44799805 247.58070372999998 252.44799805 239.54695130000005zM723.96746826 321.81566619c0 11.97338105-9.65595246 21.62933349-21.62933349 21.62933351H614.35309602c-11.97338105 0-21.62933349-9.73320007-21.62933351-21.6293335s9.65595246-21.62933349 21.6293335-21.62933349h87.98503876c11.97338105 0 21.62933349 9.65595246 21.62933349 21.62933349zM612.42190551 444.94837189c-10.89191438 0-19.77539063-9.73320007-19.77539062-21.62933351 0-11.97338105 8.80622864-21.62933349 19.77539062-21.62933349h125.60462952c10.89191438 0 19.69814301 9.65595246 19.69814302 21.62933349s-8.80622864 21.62933349-19.69814302 21.62933351H612.42190551z m0-203.00674439c-10.89191438 0-19.77539063-9.73320007-19.77539062-21.62933349 0-11.97338105 8.80622864-21.62933349 19.77539062-21.62933349h125.60462952c10.89191438 0 19.69814301 9.65595246 19.69814302 21.62933349s-8.80622864 21.62933349-19.69814302 21.6293335H612.42190551zM857.76034546 580.44069671c0 29.58583833-23.94676208 53.53260041-53.53260041 53.53260041H584.53551484v54.22782898c0 11.97338105-9.73320007 21.62933349-21.62933351 21.62933349H454.60501861c-11.97338105 0-21.62933349-9.73320007-21.62933348-21.62933349v-54.22782898h-213.20343019c-29.58583833 0-53.53260041-23.94676208-53.5326004-53.53260041v-468.89305114c0-29.58583833 23.94676208-53.53260041 53.53260041-53.53260041H821.76295471c19.85263825 0 35.99739075 16.14475251 35.99739075 35.99739075V327.60923769h0.07724762V580.44069671zM476.23435211 666.64904022h64.96524811v-64.96524811c0-17.92144777-14.59980011-32.44400025-32.44400025-32.44400024-17.92144777 0-32.44400025 14.59980011-32.44400024 32.44400024v64.96524812z m-256.46209716-565.29808044c-5.63907623 0-10.27393342 4.63485718-10.27393342 10.2739334v468.89305115c0 5.63907623 4.63485718 10.27393342 10.27393341 10.27393342h213.97590638c5.33008576-36.6153717 36.92436218-64.81075287 75.00743865-64.81075288s69.67735291 28.19538117 75.00743866 64.81075288h220.54195405c5.63907623 0 10.27393342-4.63485718 10.27393341-10.27393342v-468.04332733c0-6.10256196-4.94384766-11.04640961-11.04640961-11.0464096H219.77225494z"  horiz-adv-x="1024" />

    
    <glyph glyph-name="zhengyexianshi" unicode="&#58928;" d="M196.9745512 708.07767792c-3.62075586 0-5.43147326-1.81003846-7.24219065-3.62075586C187.92232208 702.64620466 186.11160469 700.83616619 186.11160469 697.21473141V465.47209883c0-1.81071739 0-3.62075586 1.81071739-3.62075586H191.54307794l77.85134297 77.85066403 105.00803032-105.00803031c1.81071739-1.81071739 5.43147326-3.62143479 7.24219065-3.62143479 3.62075586 0 5.43147326 1.81071739 7.24219065 3.62143479l70.60915232 70.60915232c1.81003846 1.81003846 3.62075586 5.43147326 3.62075585 7.24151171 0 3.62143479-1.81071739 5.43147326-3.62075585 7.24219066L358.10803146 628.41629648l76.04062557 76.04062557c1.81071739 1.81071739 1.81071739 1.81071739 0 3.62075587 0 1.81071739-1.81003846 1.81071739-1.81003846 1.81071739L196.9745512 708.07767792zM196.9745512 58.111604690000036c-3.62075586 0-5.43147326 1.81071739-7.24219065 3.62075586C187.92232208 63.54307793999999 186.11160469 67.16383381000003 186.11160469 68.97455119999995V302.52790116999995c0 1.81071739 0 3.62075586 1.81071739 3.62075586H191.54307794l77.85134297-77.85066403 105.00803032 105.00803031c1.81071739 1.81071739 5.43147326 3.62143479 7.24219065 3.62143479 3.62075586 0 5.43147326-1.81071739 7.24219065-3.62143479l70.60915232-70.60915232c1.81003846-1.81003846 3.62075586-5.43147326 3.62075585-7.24151171s-1.81071739-5.43147326-3.62075585-7.24219066L354.4872756 143.20445937l76.04062557-76.04062556c1.81071739-1.81003846 1.81071739-1.81003846 0-3.62075586 0-1.81071739-1.81071739-1.81071739-3.62075586-1.8107174L196.9745512 58.111604690000036zM827.0254488 708.07767792c3.62075586 0 5.43147326-1.81003846 7.24219065-3.62075586 1.81003846-1.81071739 3.62075586-3.62075586 3.62075586-7.24219065V465.47209883c0-1.81071739 0-3.62075586-1.81071739-3.62075586H832.45692206L754.60557909 539.702007 649.59754878 434.69397669c-1.81071739-1.81071739-5.43147326-3.62143479-7.24219066-3.62143479-3.62075586 0-5.43147326 1.81071739-7.24219065 3.62143479l-70.60915232 70.60915231c-1.81003846 1.81003846-3.62075586 5.43147326-3.62075584 7.24151173 0 3.62143479 1.81071739 5.43147326 3.62075584 7.24219065L669.5127244 624.79554063l-76.04062557 76.04062556c-1.81071739 1.81003846-1.81071739 1.81003846 0 3.62075586-3.62075586 5.43147326-1.81071739 5.43147326-1.8107174 5.43147326L827.0254488 708.07767792zM827.0254488 58.111604690000036c3.62075586 0 5.43147326 1.81071739 7.24219065 3.62075586C836.07767792 63.54307793999999 837.88839531 67.16383381000003 837.88839531 68.97455119999995V302.52790116999995c0 1.81071739 0 3.62075586-1.81071739 3.62075586H832.45692206L754.60557909 228.29799300000002 649.59754878 333.30602331c-1.81071739 1.81071739-5.43147326 3.62143479-7.24219066 3.62143479-3.62075586 0-5.43147326-1.81071739-7.24219065-3.62143479l-70.60915232-70.60915231c-1.81003846-1.81003846-3.62075586-5.43147326-3.62075584-7.24151173s1.81071739-5.43147326 3.62075584-7.24219065L669.5127244 143.20445937l-76.04062557-76.04062556c-1.81071739-1.81003846-1.81071739-1.81003846 0-3.62075586 0-1.81071739 1.81071739-1.81071739 3.62075586-1.8107174L827.0254488 58.111604690000036z"  horiz-adv-x="1024" />

    
    <glyph glyph-name="shuangyelianxu" unicode="&#58880;" d="M555.45178603 688.16250229H207.83749771v-434.51786041h651.77679062V688.16250229H555.45178603z m-43.45178603-391.06607436H251.28928375V644.71071625h260.71071625v-347.61428834z m304.16250229-2e-8H555.45178603V644.71071625h260.71071626v-347.61428834zM512 210.19285582999998H207.83749771v-173.80714416h43.45178604V166.7410698h260.71071625v-130.35535813h43.45178603V166.7410698h260.71071626v-130.35535813h43.45178604V210.19285582999998H555.45178603zM294.7410698 557.80714417h173.80714416v-43.45178605H294.7410698z m0-434.51786042h173.80714416v-43.45178604H294.7410698z m0 304.16250229h173.80714416v-43.45178604H294.7410698z m304.16250229 130.35535813h173.80714416v-43.45178605H598.90357209z m0-434.51786042h173.80714416v-43.45178604H598.90357209z m0 304.16250229h173.80714416v-43.45178604H598.90357209z"  horiz-adv-x="1024" />

    
    <glyph glyph-name="danyelianxu" unicode="&#58881;" d="M772.71071625 688.16250229H251.28928375v-434.51786041h521.42143249V688.16250229z m-43.45178605-391.06607437H294.7410698V644.71071625h434.5178604v-347.61428834zM251.28928375 210.19285582999998v-173.80714416h43.45178605V166.7410698h434.5178604v-130.35535813h43.45178605V210.19285582999998zM381.64464188 557.80714417h260.71071624v-43.45178605H381.64464188z m0-434.51786042h260.71071624v-43.45178604H381.64464188z m0 304.16250229h260.71071624v-43.45178604H381.64464188z"  horiz-adv-x="1024" />

    
    </font>
</defs>
</svg>
